<?xml version="1.0" encoding="utf-8" standalone="no"?>
<!DOCTYPE svg PUBLIC "-//W3C//DTD SVG 1.1//EN"
  "http://www.w3.org/Graphics/SVG/1.1/DTD/svg11.dtd">
<svg xmlns:xlink="http://www.w3.org/1999/xlink" width="720pt" height="133.2pt" viewBox="0 0 720 133.2" xmlns="http://www.w3.org/2000/svg" version="1.1">
 <metadata>
  <rdf:RDF xmlns:dc="http://purl.org/dc/elements/1.1/" xmlns:cc="http://creativecommons.org/ns#" xmlns:rdf="http://www.w3.org/1999/02/22-rdf-syntax-ns#">
   <cc:Work>
    <dc:type rdf:resource="http://purl.org/dc/dcmitype/StillImage"/>
    <dc:date>2022-09-21T15:28:54.723162</dc:date>
    <dc:format>image/svg+xml</dc:format>
    <dc:creator>
     <cc:Agent>
      <dc:title>Matplotlib v3.5.2, https://matplotlib.org/</dc:title>
     </cc:Agent>
    </dc:creator>
   </cc:Work>
  </rdf:RDF>
 </metadata>
 <defs>
  <style type="text/css">*{stroke-linejoin: round; stroke-linecap: butt}</style>
 </defs>
 <g id="figure_1">
  <g id="patch_1">
   <path d="M 0 133.2 
L 720 133.2 
L 720 0 
L 0 0 
z
" style="fill: #ffffff"/>
  </g>
  <g id="axes_1">
   <g id="patch_2">
    <path d="M 144 131.868 
L 271.741935 131.868 
L 271.741935 19.98 
L 144 19.98 
z
" style="fill: #ffffff"/>
   </g>
   <g id="matplotlib.axis_1">
    <g id="ytick_1">
     <g id="line2d_1">
      <defs>
       <path id="m92c7fdf345" d="M 0 0 
L -3.5 0 
" style="stroke: #000000; stroke-width: 0.8"/>
      </defs>
      <g>
       <use xlink:href="#m92c7fdf345" x="144" y="100.247478" style="stroke: #000000; stroke-width: 0.8"/>
      </g>
     </g>
     <g id="text_1">
      <!--   -->
      <g transform="translate(134.499687 103.468494)scale(0.09 -0.09)">
       <defs>
        <path id="ArialMT-20" transform="scale(0.015625)"/>
       </defs>
       <use xlink:href="#ArialMT-20"/>
      </g>
     </g>
    </g>
    <g id="ytick_2">
     <g id="line2d_2">
      <g>
       <use xlink:href="#m92c7fdf345" x="144" y="51.600522" style="stroke: #000000; stroke-width: 0.8"/>
      </g>
     </g>
     <g id="text_2">
      <!--   -->
      <g transform="translate(134.499687 54.821537)scale(0.09 -0.09)">
       <use xlink:href="#ArialMT-20"/>
      </g>
     </g>
    </g>
   </g>
   <g id="line2d_3">
    <path d="M 144 131.868 
L 144 19.98 
" clip-path="url(#p717e9f087c)" style="fill: none; stroke: #a9a9a9; stroke-width: 1.5; stroke-linecap: square"/>
   </g>
   <g id="patch_3">
    <path d="M 144 131.868 
L 144 19.98 
" style="fill: none; stroke: #000000; stroke-width: 0.8; stroke-linejoin: miter; stroke-linecap: square"/>
   </g>
   <g id="line2d_4">
    <path d="M 149.156627 124.570957 
L 149.451183 123.58819 
L 149.756035 122.605423 
L 150.071049 121.622656 
L 150.396048 120.639889 
L 150.73081 119.657123 
L 151.075068 118.674356 
L 151.428507 117.691589 
L 151.790765 116.708822 
L 152.161431 115.726055 
L 152.540046 114.743289 
L 152.9261 113.760522 
L 153.319035 112.777755 
L 153.718244 111.794988 
L 154.123071 110.812221 
L 154.532815 109.829455 
L 154.946726 108.846688 
L 155.364012 107.863921 
L 155.783839 106.881154 
L 156.205331 105.898387 
L 156.627576 104.915621 
L 157.049626 103.932854 
L 157.470502 102.950087 
L 157.889197 101.96732 
L 158.304681 100.984553 
L 158.715901 100.001787 
L 159.121789 99.01902 
L 159.521267 98.036253 
L 159.913247 97.053486 
L 160.296641 96.070719 
L 160.670362 95.087953 
L 161.033333 94.105186 
L 161.384487 93.122419 
L 161.722777 92.139652 
L 162.047179 91.156885 
L 162.356697 90.174119 
L 162.650368 89.191352 
L 162.927267 88.208585 
L 163.186514 87.225818 
L 163.427275 86.243051 
L 163.64877 85.260285 
L 163.850273 84.277518 
L 164.031121 83.294751 
L 164.190715 82.311984 
L 164.328521 81.329217 
L 164.444077 80.346451 
L 164.536995 79.363684 
L 164.606961 78.380917 
L 164.653737 77.39815 
L 164.677165 76.415383 
L 164.677165 75.432617 
L 164.653737 74.44985 
L 164.606961 73.467083 
L 164.536995 72.484316 
L 164.444077 71.501549 
L 164.328521 70.518783 
L 164.190715 69.536016 
L 164.031121 68.553249 
L 163.850273 67.570482 
L 163.64877 66.587715 
L 163.427275 65.604949 
L 163.186514 64.622182 
L 162.927267 63.639415 
L 162.650368 62.656648 
L 162.356697 61.673881 
L 162.047179 60.691115 
L 161.722777 59.708348 
L 161.384487 58.725581 
L 161.033333 57.742814 
L 160.670362 56.760047 
L 160.296641 55.777281 
L 159.913247 54.794514 
L 159.521267 53.811747 
L 159.121789 52.82898 
L 158.715901 51.846213 
L 158.304681 50.863447 
L 157.889197 49.88068 
L 157.470502 48.897913 
L 157.049626 47.915146 
L 156.627576 46.932379 
L 156.205331 45.949613 
L 155.783839 44.966846 
L 155.364012 43.984079 
L 154.946726 43.001312 
L 154.532815 42.018545 
L 154.123071 41.035779 
L 153.718244 40.053012 
L 153.319035 39.070245 
L 152.9261 38.087478 
L 152.540046 37.104711 
L 152.161431 36.121945 
L 151.790765 35.139178 
L 151.428507 34.156411 
L 151.075068 33.173644 
L 150.73081 32.190877 
L 150.396048 31.208111 
L 150.071049 30.225344 
L 149.756035 29.242577 
L 149.451183 28.25981 
L 149.156627 27.277043 
" clip-path="url(#p717e9f087c)" style="fill: none; stroke: #1e90ff; stroke-width: 1.5; stroke-linecap: square"/>
   </g>
   <g id="line2d_5">
    <path d="M 144.00042 124.570957 
L 144.001129 123.58819 
L 144.002917 122.605423 
L 144.007232 121.622656 
L 144.017215 120.639889 
L 144.03934 119.657123 
L 144.086304 118.674356 
L 144.181762 117.691589 
L 144.367493 116.708822 
L 144.713301 115.726055 
L 145.329141 114.743289 
L 146.377635 113.760522 
L 148.083145 112.777755 
L 150.731625 111.794988 
L 154.654191 110.812221 
L 160.188126 109.829455 
L 167.612837 108.846688 
L 177.065513 107.863921 
L 188.450625 106.881154 
L 201.366186 105.898387 
L 215.073808 104.915621 
L 228.535416 103.932854 
L 240.525778 102.950087 
L 249.809199 101.96732 
L 255.347135 100.984553 
L 256.48903 100.001787 
L 253.098003 99.01902 
L 245.57783 98.036253 
L 234.793878 97.053486 
L 221.909372 96.070719 
L 208.179797 95.087953 
L 194.755427 94.105186 
L 182.533826 93.122419 
L 172.085185 92.139652 
L 163.651148 91.156885 
L 157.200005 90.174119 
L 152.512081 89.191352 
L 149.269543 88.208585 
L 147.131739 87.225818 
L 145.786791 86.243051 
L 144.978673 85.260285 
L 144.514608 84.277518 
L 144.259771 83.294751 
L 144.125887 82.311984 
L 144.058566 81.329217 
L 144.026157 80.346451 
L 144.011215 79.363684 
L 144.004616 78.380917 
L 144.001824 77.39815 
L 144.000692 76.415383 
L 144.000252 75.432617 
L 144.000088 74.44985 
L 144.00003 73.467083 
L 144.00001 72.484316 
L 144.000003 71.501549 
L 144.000001 70.518783 
L 144 69.536016 
L 144 68.553249 
L 144 67.570482 
L 144 66.587715 
L 144 65.604949 
L 144 64.622182 
L 144 63.639415 
L 144 62.656648 
L 144 61.673881 
L 144 60.691115 
L 144 59.708348 
L 144 58.725581 
L 144 57.742814 
L 144 56.760047 
L 144 55.777281 
L 144 54.794514 
L 144 53.811747 
L 144 52.82898 
L 144 51.846213 
L 144 50.863447 
L 144 49.88068 
L 144 48.897913 
L 144 47.915146 
L 144 46.932379 
L 144 45.949613 
L 144 44.966846 
L 144 43.984079 
L 144 43.001312 
L 144 42.018545 
L 144 41.035779 
L 144 40.053012 
L 144 39.070245 
L 144 38.087478 
L 144 37.104711 
L 144 36.121945 
L 144 35.139178 
L 144 34.156411 
L 144 33.173644 
L 144 32.190877 
L 144 31.208111 
L 144 30.225344 
L 144 29.242577 
L 144 28.25981 
L 144 27.277043 
" clip-path="url(#p717e9f087c)" style="fill: none; stroke: #808080; stroke-width: 1.5; stroke-linecap: square"/>
   </g>
   <g id="line2d_6">
    <path d="M 144.000149 124.570957 
L 144.000423 123.58819 
L 144.001154 122.605423 
L 144.003018 121.622656 
L 144.007567 120.639889 
L 144.018198 119.657123 
L 144.041964 118.674356 
L 144.092794 117.691589 
L 144.196765 116.708822 
L 144.400089 115.726055 
L 144.780099 114.743289 
L 145.458563 113.760522 
L 146.615074 112.777755 
L 148.495995 111.794988 
L 151.412265 110.812221 
L 155.718153 109.829455 
L 161.764401 108.846688 
L 169.824095 107.863921 
L 179.998369 106.881154 
L 192.119786 105.898387 
L 205.680475 104.915621 
L 219.814956 103.932854 
L 233.360424 102.950087 
L 244.999381 101.96732 
L 253.46502 100.984553 
L 257.7667 100.001787 
L 257.380435 99.01902 
L 252.353822 98.036253 
L 243.296401 97.053486 
L 231.258136 96.070719 
L 217.529484 95.087953 
L 203.415568 94.105186 
L 190.038604 93.122419 
L 178.207962 92.139652 
L 168.37336 91.156885 
L 160.652781 90.174119 
L 154.910416 89.191352 
L 150.85455 88.208585 
L 148.129522 87.225818 
L 146.385634 86.243051 
L 145.321572 85.260285 
L 144.702039 84.277518 
L 144.357614 83.294751 
L 144.174683 82.311984 
L 144.081822 81.329217 
L 144.036751 80.346451 
L 144.015829 79.363684 
L 144.006538 78.380917 
L 144.002589 77.39815 
L 144.000983 76.415383 
L 144.000358 75.432617 
L 144.000125 74.44985 
L 144.000042 73.467083 
L 144.000013 72.484316 
L 144.000004 71.501549 
L 144.000001 70.518783 
L 144 69.536016 
L 144 68.553249 
L 144 67.570482 
L 144 66.587715 
L 144 65.604949 
L 144 64.622182 
L 144 63.639415 
L 144 62.656648 
L 144 61.673881 
L 144 60.691115 
L 144 59.708348 
L 144 58.725581 
L 144 57.742814 
L 144 56.760047 
L 144 55.777281 
L 144 54.794514 
L 144 53.811747 
L 144 52.82898 
L 144 51.846213 
L 144 50.863447 
L 144 49.88068 
L 144 48.897913 
L 144 47.915146 
L 144 46.932379 
L 144 45.949613 
L 144 44.966846 
L 144 43.984079 
L 144 43.001312 
L 144 42.018545 
L 144 41.035779 
L 144 40.053012 
L 144 39.070245 
L 144 38.087478 
L 144 37.104711 
L 144 36.121945 
L 144 35.139178 
L 144 34.156411 
L 144 33.173644 
L 144 32.190877 
L 144 31.208111 
L 144 30.225344 
L 144 29.242577 
L 144 28.25981 
L 144 27.277043 
" clip-path="url(#p717e9f087c)" style="fill: none; stroke: #cc78bc; stroke-width: 1.5; stroke-linecap: square"/>
   </g>
   <g id="PathCollection_1">
    <defs>
     <path id="me5d5fcb8ac" d="M 0 -2.738613 
L -0.614857 -0.846278 
L -2.604576 -0.846278 
L -0.994859 0.323249 
L -1.609716 2.215584 
L -0 1.046057 
L 1.609716 2.215584 
L 0.994859 0.323249 
L 2.604576 -0.846278 
L 0.614857 -0.846278 
z
" style="stroke: #029e73"/>
    </defs>
    <g>
     <use xlink:href="#me5d5fcb8ac" x="257.7667" y="100.001787" style="fill: #029e73; stroke: #029e73"/>
    </g>
   </g>
  </g>
  <g id="axes_2">
   <g id="patch_4">
    <path d="M 278.129032 131.868 
L 405.870968 131.868 
L 405.870968 19.98 
L 278.129032 19.98 
z
" style="fill: #ffffff"/>
   </g>
   <g id="matplotlib.axis_2">
    <g id="ytick_3">
     <g id="line2d_7">
      <g>
       <use xlink:href="#m92c7fdf345" x="278.129032" y="100.247478" style="stroke: #000000; stroke-width: 0.8"/>
      </g>
     </g>
     <g id="text_3">
      <!--   -->
      <g transform="translate(268.62872 103.468494)scale(0.09 -0.09)">
       <use xlink:href="#ArialMT-20"/>
      </g>
     </g>
    </g>
    <g id="ytick_4">
     <g id="line2d_8">
      <g>
       <use xlink:href="#m92c7fdf345" x="278.129032" y="51.600522" style="stroke: #000000; stroke-width: 0.8"/>
      </g>
     </g>
     <g id="text_4">
      <!--   -->
      <g transform="translate(268.62872 54.821537)scale(0.09 -0.09)">
       <use xlink:href="#ArialMT-20"/>
      </g>
     </g>
    </g>
   </g>
   <g id="line2d_9">
    <path d="M 278.129032 131.868 
L 278.129032 19.98 
" clip-path="url(#p2ac6cea0fd)" style="fill: none; stroke: #a9a9a9; stroke-width: 1.5; stroke-linecap: square"/>
   </g>
   <g id="patch_5">
    <path d="M 278.129032 131.868 
L 278.129032 19.98 
" style="fill: none; stroke: #000000; stroke-width: 0.8; stroke-linejoin: miter; stroke-linecap: square"/>
   </g>
   <g id="line2d_10">
    <path d="M 283.292841 124.570957 
L 283.587806 123.58819 
L 283.893083 122.605423 
L 284.208536 121.622656 
L 284.533987 120.639889 
L 284.869215 119.657123 
L 285.213952 118.674356 
L 285.567884 117.691589 
L 285.930646 116.708822 
L 286.301829 115.726055 
L 286.680971 114.743289 
L 287.067563 113.760522 
L 287.461045 112.777755 
L 287.860809 111.794988 
L 288.266201 110.812221 
L 288.676515 109.829455 
L 289.091002 108.846688 
L 289.50887 107.863921 
L 289.929281 106.881154 
L 290.35136 105.898387 
L 290.774193 104.915621 
L 291.19683 103.932854 
L 291.618292 102.950087 
L 292.037571 101.96732 
L 292.453633 100.984553 
L 292.865426 100.001787 
L 293.271879 99.01902 
L 293.671913 98.036253 
L 294.064439 97.053486 
L 294.448367 96.070719 
L 294.822609 95.087953 
L 295.186085 94.105186 
L 295.537728 93.122419 
L 295.87649 92.139652 
L 296.201343 91.156885 
L 296.511292 90.174119 
L 296.805372 89.191352 
L 297.082657 88.208585 
L 297.342265 87.225818 
L 297.583361 86.243051 
L 297.805164 85.260285 
L 298.006948 84.277518 
L 298.188048 83.294751 
L 298.347864 82.311984 
L 298.485862 81.329217 
L 298.601579 80.346451 
L 298.694627 79.363684 
L 298.76469 78.380917 
L 298.811531 77.39815 
L 298.834991 76.415383 
L 298.834991 75.432617 
L 298.811531 74.44985 
L 298.76469 73.467083 
L 298.694627 72.484316 
L 298.601579 71.501549 
L 298.485862 70.518783 
L 298.347864 69.536016 
L 298.188048 68.553249 
L 298.006948 67.570482 
L 297.805164 66.587715 
L 297.583361 65.604949 
L 297.342265 64.622182 
L 297.082657 63.639415 
L 296.805372 62.656648 
L 296.511292 61.673881 
L 296.201343 60.691115 
L 295.87649 59.708348 
L 295.537728 58.725581 
L 295.186085 57.742814 
L 294.822609 56.760047 
L 294.448367 55.777281 
L 294.064439 54.794514 
L 293.671913 53.811747 
L 293.271879 52.82898 
L 292.865426 51.846213 
L 292.453633 50.863447 
L 292.037571 49.88068 
L 291.618292 48.897913 
L 291.19683 47.915146 
L 290.774193 46.932379 
L 290.35136 45.949613 
L 289.929281 44.966846 
L 289.50887 43.984079 
L 289.091002 43.001312 
L 288.676515 42.018545 
L 288.266201 41.035779 
L 287.860809 40.053012 
L 287.461045 39.070245 
L 287.067563 38.087478 
L 286.680971 37.104711 
L 286.301829 36.121945 
L 285.930646 35.139178 
L 285.567884 34.156411 
L 285.213952 33.173644 
L 284.869215 32.190877 
L 284.533987 31.208111 
L 284.208536 30.225344 
L 283.893083 29.242577 
L 283.587806 28.25981 
L 283.292841 27.277043 
" clip-path="url(#p2ac6cea0fd)" style="fill: none; stroke: #1e90ff; stroke-width: 1.5; stroke-linecap: square"/>
   </g>
   <g id="line2d_11">
    <path d="M 278.129032 124.570957 
L 278.129032 123.58819 
L 278.129032 122.605423 
L 278.129032 121.622656 
L 278.129032 120.639889 
L 278.129032 119.657123 
L 278.129032 118.674356 
L 278.129032 117.691589 
L 278.129032 116.708822 
L 278.129032 115.726055 
L 278.129032 114.743289 
L 278.129032 113.760522 
L 278.129032 112.777755 
L 278.129032 111.794988 
L 278.129032 110.812221 
L 278.129032 109.829455 
L 278.129032 108.846688 
L 278.129032 107.863921 
L 278.129032 106.881154 
L 278.129033 105.898387 
L 278.129034 104.915621 
L 278.129039 103.932854 
L 278.129055 102.950087 
L 278.1291 101.96732 
L 278.129227 100.984553 
L 278.129573 100.001787 
L 278.130471 99.01902 
L 278.132711 98.036253 
L 278.138062 97.053486 
L 278.150309 96.070719 
L 278.17716 95.087953 
L 278.233544 94.105186 
L 278.346906 93.122419 
L 278.565067 92.139652 
L 278.96678 91.156885 
L 279.674218 90.174119 
L 280.865079 89.191352 
L 282.779986 88.208585 
L 285.718931 87.225818 
L 290.019679 86.243051 
L 296.012447 85.260285 
L 303.949905 84.277518 
L 313.91946 83.294751 
L 325.754402 82.311984 
L 338.968491 81.329217 
L 352.740885 80.346451 
L 365.97176 79.363684 
L 377.413041 78.380917 
L 385.856958 77.39815 
L 390.344518 76.415383 
L 390.344518 75.432617 
L 385.856958 74.44985 
L 377.413041 73.467083 
L 365.97176 72.484316 
L 352.740885 71.501549 
L 338.968491 70.518783 
L 325.754402 69.536016 
L 313.91946 68.553249 
L 303.949905 67.570482 
L 296.012447 66.587715 
L 290.019679 65.604949 
L 285.718931 64.622182 
L 282.779986 63.639415 
L 280.865079 62.656648 
L 279.674218 61.673881 
L 278.96678 60.691115 
L 278.565067 59.708348 
L 278.346906 58.725581 
L 278.233544 57.742814 
L 278.17716 56.760047 
L 278.150309 55.777281 
L 278.138062 54.794514 
L 278.132711 53.811747 
L 278.130471 52.82898 
L 278.129573 51.846213 
L 278.129227 50.863447 
L 278.1291 49.88068 
L 278.129055 48.897913 
L 278.129039 47.915146 
L 278.129034 46.932379 
L 278.129033 45.949613 
L 278.129032 44.966846 
L 278.129032 43.984079 
L 278.129032 43.001312 
L 278.129032 42.018545 
L 278.129032 41.035779 
L 278.129032 40.053012 
L 278.129032 39.070245 
L 278.129032 38.087478 
L 278.129032 37.104711 
L 278.129032 36.121945 
L 278.129032 35.139178 
L 278.129032 34.156411 
L 278.129032 33.173644 
L 278.129032 32.190877 
L 278.129032 31.208111 
L 278.129032 30.225344 
L 278.129032 29.242577 
L 278.129032 28.25981 
L 278.129032 27.277043 
" clip-path="url(#p2ac6cea0fd)" style="fill: none; stroke: #808080; stroke-width: 1.5; stroke-linecap: square"/>
   </g>
   <g id="line2d_12">
    <path d="M 278.129032 124.570957 
L 278.129032 123.58819 
L 278.129032 122.605423 
L 278.129032 121.622656 
L 278.129032 120.639889 
L 278.129032 119.657123 
L 278.129032 118.674356 
L 278.129032 117.691589 
L 278.129032 116.708822 
L 278.129032 115.726055 
L 278.129032 114.743289 
L 278.129032 113.760522 
L 278.129032 112.777755 
L 278.129032 111.794988 
L 278.129032 110.812221 
L 278.129032 109.829455 
L 278.129032 108.846688 
L 278.129032 107.863921 
L 278.129032 106.881154 
L 278.129033 105.898387 
L 278.129034 104.915621 
L 278.129037 103.932854 
L 278.129047 102.950087 
L 278.129078 101.96732 
L 278.129169 100.984553 
L 278.129422 100.001787 
L 278.130099 99.01902 
L 278.131832 98.036253 
L 278.136077 97.053486 
L 278.14603 96.070719 
L 278.168364 95.087953 
L 278.216301 94.105186 
L 278.314712 93.122419 
L 278.507867 92.139652 
L 278.870205 91.156885 
L 279.519536 90.174119 
L 280.630576 89.191352 
L 282.444492 88.208585 
L 285.267897 87.225818 
L 289.453413 86.243051 
L 295.354971 85.260285 
L 303.255676 84.277518 
L 313.274492 83.294751 
L 325.268768 82.311984 
L 338.759121 81.329217 
L 352.906788 80.346451 
L 366.567213 79.363684 
L 378.426584 78.380917 
L 387.20373 77.39815 
L 391.876271 76.415383 
L 391.876271 75.432617 
L 387.20373 74.44985 
L 378.426584 73.467083 
L 366.567213 72.484316 
L 352.906788 71.501549 
L 338.759121 70.518783 
L 325.268768 69.536016 
L 313.274492 68.553249 
L 303.255676 67.570482 
L 295.354971 66.587715 
L 289.453413 65.604949 
L 285.267897 64.622182 
L 282.444492 63.639415 
L 280.630576 62.656648 
L 279.519536 61.673881 
L 278.870205 60.691115 
L 278.507867 59.708348 
L 278.314712 58.725581 
L 278.216301 57.742814 
L 278.168364 56.760047 
L 278.14603 55.777281 
L 278.136077 54.794514 
L 278.131832 53.811747 
L 278.130099 52.82898 
L 278.129422 51.846213 
L 278.129169 50.863447 
L 278.129078 49.88068 
L 278.129047 48.897913 
L 278.129037 47.915146 
L 278.129034 46.932379 
L 278.129033 45.949613 
L 278.129032 44.966846 
L 278.129032 43.984079 
L 278.129032 43.001312 
L 278.129032 42.018545 
L 278.129032 41.035779 
L 278.129032 40.053012 
L 278.129032 39.070245 
L 278.129032 38.087478 
L 278.129032 37.104711 
L 278.129032 36.121945 
L 278.129032 35.139178 
L 278.129032 34.156411 
L 278.129032 33.173644 
L 278.129032 32.190877 
L 278.129032 31.208111 
L 278.129032 30.225344 
L 278.129032 29.242577 
L 278.129032 28.25981 
L 278.129032 27.277043 
" clip-path="url(#p2ac6cea0fd)" style="fill: none; stroke: #cc78bc; stroke-width: 1.5; stroke-linecap: square"/>
   </g>
   <g id="PathCollection_2">
    <g>
     <use xlink:href="#me5d5fcb8ac" x="391.876271" y="76.415383" style="fill: #029e73; stroke: #029e73"/>
    </g>
   </g>
  </g>
  <g id="axes_3">
   <g id="patch_6">
    <path d="M 412.258065 131.868 
L 540 131.868 
L 540 19.98 
L 412.258065 19.98 
z
" style="fill: #ffffff"/>
   </g>
   <g id="matplotlib.axis_3">
    <g id="ytick_5">
     <g id="line2d_13">
      <g>
       <use xlink:href="#m92c7fdf345" x="412.258065" y="100.247478" style="stroke: #000000; stroke-width: 0.8"/>
      </g>
     </g>
     <g id="text_5">
      <!--   -->
      <g transform="translate(402.757752 103.468494)scale(0.09 -0.09)">
       <use xlink:href="#ArialMT-20"/>
      </g>
     </g>
    </g>
    <g id="ytick_6">
     <g id="line2d_14">
      <g>
       <use xlink:href="#m92c7fdf345" x="412.258065" y="51.600522" style="stroke: #000000; stroke-width: 0.8"/>
      </g>
     </g>
     <g id="text_6">
      <!--   -->
      <g transform="translate(402.757752 54.821537)scale(0.09 -0.09)">
       <use xlink:href="#ArialMT-20"/>
      </g>
     </g>
    </g>
   </g>
   <g id="line2d_15">
    <path d="M 412.258065 131.868 
L 412.258065 19.98 
" clip-path="url(#p0afe67b0ba)" style="fill: none; stroke: #a9a9a9; stroke-width: 1.5; stroke-linecap: square"/>
   </g>
   <g id="patch_7">
    <path d="M 412.258065 131.868 
L 412.258065 19.98 
" style="fill: none; stroke: #000000; stroke-width: 0.8; stroke-linejoin: miter; stroke-linecap: square"/>
   </g>
   <g id="line2d_16">
    <path d="M 417.414692 124.570957 
L 417.709247 123.58819 
L 418.014099 122.605423 
L 418.329113 121.622656 
L 418.654112 120.639889 
L 418.988874 119.657123 
L 419.333132 118.674356 
L 419.686571 117.691589 
L 420.04883 116.708822 
L 420.419496 115.726055 
L 420.798111 114.743289 
L 421.184165 113.760522 
L 421.5771 112.777755 
L 421.976308 111.794988 
L 422.381136 110.812221 
L 422.790879 109.829455 
L 423.20479 108.846688 
L 423.622077 107.863921 
L 424.041904 106.881154 
L 424.463396 105.898387 
L 424.88564 104.915621 
L 425.30769 103.932854 
L 425.728566 102.950087 
L 426.147262 101.96732 
L 426.562745 100.984553 
L 426.973965 100.001787 
L 427.379854 99.01902 
L 427.779331 98.036253 
L 428.171311 97.053486 
L 428.554705 96.070719 
L 428.928426 95.087953 
L 429.291397 94.105186 
L 429.642551 93.122419 
L 429.980842 92.139652 
L 430.305244 91.156885 
L 430.614761 90.174119 
L 430.908432 89.191352 
L 431.185332 88.208585 
L 431.444578 87.225818 
L 431.68534 86.243051 
L 431.906834 85.260285 
L 432.108338 84.277518 
L 432.289186 83.294751 
L 432.448779 82.311984 
L 432.586585 81.329217 
L 432.702142 80.346451 
L 432.79506 79.363684 
L 432.865025 78.380917 
L 432.911801 77.39815 
L 432.935229 76.415383 
L 432.935229 75.432617 
L 432.911801 74.44985 
L 432.865025 73.467083 
L 432.79506 72.484316 
L 432.702142 71.501549 
L 432.586585 70.518783 
L 432.448779 69.536016 
L 432.289186 68.553249 
L 432.108338 67.570482 
L 431.906834 66.587715 
L 431.68534 65.604949 
L 431.444578 64.622182 
L 431.185332 63.639415 
L 430.908432 62.656648 
L 430.614761 61.673881 
L 430.305244 60.691115 
L 429.980842 59.708348 
L 429.642551 58.725581 
L 429.291397 57.742814 
L 428.928426 56.760047 
L 428.554705 55.777281 
L 428.171311 54.794514 
L 427.779331 53.811747 
L 427.379854 52.82898 
L 426.973965 51.846213 
L 426.562745 50.863447 
L 426.147262 49.88068 
L 425.728566 48.897913 
L 425.30769 47.915146 
L 424.88564 46.932379 
L 424.463396 45.949613 
L 424.041904 44.966846 
L 423.622077 43.984079 
L 423.20479 43.001312 
L 422.790879 42.018545 
L 422.381136 41.035779 
L 421.976308 40.053012 
L 421.5771 39.070245 
L 421.184165 38.087478 
L 420.798111 37.104711 
L 420.419496 36.121945 
L 420.04883 35.139178 
L 419.686571 34.156411 
L 419.333132 33.173644 
L 418.988874 32.190877 
L 418.654112 31.208111 
L 418.329113 30.225344 
L 418.014099 29.242577 
L 417.709247 28.25981 
L 417.414692 27.277043 
" clip-path="url(#p0afe67b0ba)" style="fill: none; stroke: #1e90ff; stroke-width: 1.5; stroke-linecap: square"/>
   </g>
   <g id="line2d_17">
    <path d="M 412.258065 124.570957 
L 412.258065 123.58819 
L 412.258065 122.605423 
L 412.258065 121.622656 
L 412.258065 120.639889 
L 412.258065 119.657123 
L 412.258065 118.674356 
L 412.258065 117.691589 
L 412.258065 116.708822 
L 412.258065 115.726055 
L 412.258065 114.743289 
L 412.258065 113.760522 
L 412.258065 112.777755 
L 412.258065 111.794988 
L 412.258065 110.812221 
L 412.258065 109.829455 
L 412.258065 108.846688 
L 412.258065 107.863921 
L 412.258065 106.881154 
L 412.258065 105.898387 
L 412.258065 104.915621 
L 412.258065 103.932854 
L 412.258065 102.950087 
L 412.258065 101.96732 
L 412.258065 100.984553 
L 412.258065 100.001787 
L 412.258065 99.01902 
L 412.258065 98.036253 
L 412.258065 97.053486 
L 412.258065 96.070719 
L 412.258065 95.087953 
L 412.258065 94.105186 
L 412.258065 93.122419 
L 412.258065 92.139652 
L 412.258065 91.156885 
L 412.258065 90.174119 
L 412.258065 89.191352 
L 412.258065 88.208585 
L 412.258065 87.225818 
L 412.258065 86.243051 
L 412.258065 85.260285 
L 412.258065 84.277518 
L 412.258065 83.294751 
L 412.258065 82.311984 
L 412.258065 81.329217 
L 412.258067 80.346451 
L 412.258074 79.363684 
L 412.258094 78.380917 
L 412.258153 77.39815 
L 412.258317 76.415383 
L 412.258757 75.432617 
L 412.259889 74.44985 
L 412.262681 73.467083 
L 412.26928 72.484316 
L 412.284222 71.501549 
L 412.316631 70.518783 
L 412.383952 69.536016 
L 412.517836 68.553249 
L 412.772673 67.570482 
L 413.236737 66.587715 
L 414.044855 65.604949 
L 415.389804 64.622182 
L 417.527607 63.639415 
L 420.770146 62.656648 
L 425.458069 61.673881 
L 431.909213 60.691115 
L 440.343249 59.708348 
L 450.791891 58.725581 
L 463.013491 57.742814 
L 476.437862 56.760047 
L 490.167436 55.777281 
L 503.051942 54.794514 
L 513.835894 53.811747 
L 521.356067 52.82898 
L 524.747095 51.846213 
L 523.6052 50.863447 
L 518.067264 49.88068 
L 508.783842 48.897913 
L 496.793481 47.915146 
L 483.331872 46.932379 
L 469.62425 45.949613 
L 456.708689 44.966846 
L 445.323578 43.984079 
L 435.870902 43.001312 
L 428.446191 42.018545 
L 422.912256 41.035779 
L 418.989689 40.053012 
L 416.34121 39.070245 
L 414.6357 38.087478 
L 413.587206 37.104711 
L 412.971365 36.121945 
L 412.625558 35.139178 
L 412.439826 34.156411 
L 412.344368 33.173644 
L 412.297404 32.190877 
L 412.27528 31.208111 
L 412.265297 30.225344 
L 412.260981 29.242577 
L 412.259194 28.25981 
L 412.258484 27.277043 
" clip-path="url(#p0afe67b0ba)" style="fill: none; stroke: #808080; stroke-width: 1.5; stroke-linecap: square"/>
   </g>
   <g id="line2d_18">
    <path d="M 412.258065 124.570957 
L 412.258065 123.58819 
L 412.258065 122.605423 
L 412.258065 121.622656 
L 412.258065 120.639889 
L 412.258065 119.657123 
L 412.258065 118.674356 
L 412.258065 117.691589 
L 412.258065 116.708822 
L 412.258065 115.726055 
L 412.258065 114.743289 
L 412.258065 113.760522 
L 412.258065 112.777755 
L 412.258065 111.794988 
L 412.258065 110.812221 
L 412.258065 109.829455 
L 412.258065 108.846688 
L 412.258065 107.863921 
L 412.258065 106.881154 
L 412.258065 105.898387 
L 412.258065 104.915621 
L 412.258065 103.932854 
L 412.258065 102.950087 
L 412.258065 101.96732 
L 412.258065 100.984553 
L 412.258065 100.001787 
L 412.258065 99.01902 
L 412.258065 98.036253 
L 412.258065 97.053486 
L 412.258065 96.070719 
L 412.258065 95.087953 
L 412.258065 94.105186 
L 412.258065 93.122419 
L 412.258065 92.139652 
L 412.258065 91.156885 
L 412.258065 90.174119 
L 412.258065 89.191352 
L 412.258065 88.208585 
L 412.258065 87.225818 
L 412.258065 86.243051 
L 412.258065 85.260285 
L 412.258065 84.277518 
L 412.258065 83.294751 
L 412.258065 82.311984 
L 412.258066 81.329217 
L 412.258069 80.346451 
L 412.258078 79.363684 
L 412.258106 78.380917 
L 412.25819 77.39815 
L 412.258423 76.415383 
L 412.259048 75.432617 
L 412.260654 74.44985 
L 412.264602 73.467083 
L 412.273894 72.484316 
L 412.294816 71.501549 
L 412.339887 70.518783 
L 412.432748 69.536016 
L 412.615679 68.553249 
L 412.960104 67.570482 
L 413.579637 66.587715 
L 414.643698 65.604949 
L 416.387587 64.622182 
L 419.112615 63.639415 
L 423.16848 62.656648 
L 428.910846 61.673881 
L 436.631425 60.691115 
L 446.466027 59.708348 
L 458.296669 58.725581 
L 471.673633 57.742814 
L 485.787548 56.760047 
L 499.516201 55.777281 
L 511.554465 54.794514 
L 520.611887 53.811747 
L 525.6385 52.82898 
L 526.024765 51.846213 
L 521.723084 50.863447 
L 513.257446 49.88068 
L 501.618489 48.897913 
L 488.073021 47.915146 
L 473.93854 46.932379 
L 460.377851 45.949613 
L 448.256433 44.966846 
L 438.08216 43.984079 
L 430.022465 43.001312 
L 423.976217 42.018545 
L 419.670329 41.035779 
L 416.75406 40.053012 
L 414.873138 39.070245 
L 413.716627 38.087478 
L 413.038163 37.104711 
L 412.658154 36.121945 
L 412.454829 35.139178 
L 412.350859 34.156411 
L 412.300029 33.173644 
L 412.276262 32.190877 
L 412.265632 31.208111 
L 412.261082 30.225344 
L 412.259218 29.242577 
L 412.258488 28.25981 
L 412.258213 27.277043 
" clip-path="url(#p0afe67b0ba)" style="fill: none; stroke: #cc78bc; stroke-width: 1.5; stroke-linecap: square"/>
   </g>
   <g id="PathCollection_3">
    <g>
     <use xlink:href="#me5d5fcb8ac" x="526.024765" y="51.846213" style="fill: #029e73; stroke: #029e73"/>
    </g>
   </g>
  </g>
 </g>
 <defs>
  <clipPath id="p717e9f087c">
   <rect x="144" y="19.98" width="127.741935" height="111.888"/>
  </clipPath>
  <clipPath id="p2ac6cea0fd">
   <rect x="278.129032" y="19.98" width="127.741935" height="111.888"/>
  </clipPath>
  <clipPath id="p0afe67b0ba">
   <rect x="412.258065" y="19.98" width="127.741935" height="111.888"/>
  </clipPath>
 </defs>
</svg>
