<?xml version="1.0" encoding="utf-8" standalone="no"?>
<!DOCTYPE svg PUBLIC "-//W3C//DTD SVG 1.1//EN"
  "http://www.w3.org/Graphics/SVG/1.1/DTD/svg11.dtd">
<svg xmlns:xlink="http://www.w3.org/1999/xlink" width="216pt" height="72pt" viewBox="0 0 216 72" xmlns="http://www.w3.org/2000/svg" version="1.1">
 <metadata>
  <rdf:RDF xmlns:dc="http://purl.org/dc/elements/1.1/" xmlns:cc="http://creativecommons.org/ns#" xmlns:rdf="http://www.w3.org/1999/02/22-rdf-syntax-ns#">
   <cc:Work>
    <dc:type rdf:resource="http://purl.org/dc/dcmitype/StillImage"/>
    <dc:date>2022-09-21T15:28:38.075401</dc:date>
    <dc:format>image/svg+xml</dc:format>
    <dc:creator>
     <cc:Agent>
      <dc:title>Matplotlib v3.5.2, https://matplotlib.org/</dc:title>
     </cc:Agent>
    </dc:creator>
   </cc:Work>
  </rdf:RDF>
 </metadata>
 <defs>
  <style type="text/css">*{stroke-linejoin: round; stroke-linecap: butt}</style>
 </defs>
 <g id="figure_1">
  <g id="patch_1">
   <path d="M 0 72 
L 216 72 
L 216 0 
L 0 0 
z
" style="fill: #ffffff"/>
  </g>
  <g id="axes_1">
   <g id="patch_2">
    <path d="M 27 64.08 
L 194.4 64.08 
L 194.4 8.64 
L 27 8.64 
z
" style="fill: #ffffff"/>
   </g>
   <g id="patch_3">
    <path d="M 142.532126 64.08 
L 132.720941 64.08 
L 132.720941 32.519149 
L 142.532126 32.519149 
z
" clip-path="url(#pc8cbbc2257)" style="fill: #b22222; fill-opacity: 0.75; stroke: #ffffff; stroke-width: 1.5; stroke-linejoin: miter"/>
   </g>
   <g id="patch_4">
    <path d="M 131.630809 64.08 
L 121.819624 64.08 
L 121.819624 19.978871 
L 131.630809 19.978871 
z
" clip-path="url(#pc8cbbc2257)" style="fill: #b22222; fill-opacity: 0.75; stroke: #ffffff; stroke-width: 1.5; stroke-linejoin: miter"/>
   </g>
   <g id="patch_5">
    <path d="M 120.729493 64.08 
L 110.918308 64.08 
L 110.918308 15.919156 
L 120.729493 15.919156 
z
" clip-path="url(#pc8cbbc2257)" style="fill: #b22222; fill-opacity: 0.75; stroke: #ffffff; stroke-width: 1.5; stroke-linejoin: miter"/>
   </g>
   <g id="patch_6">
    <path d="M 109.828176 64.08 
L 100.016991 64.08 
L 100.016991 15.819517 
L 109.828176 15.819517 
z
" clip-path="url(#pc8cbbc2257)" style="fill: #b22222; fill-opacity: 0.75; stroke: #ffffff; stroke-width: 1.5; stroke-linejoin: miter"/>
   </g>
   <g id="patch_7">
    <path d="M 98.926859 64.08 
L 89.115674 64.08 
L 89.115674 26.679962 
L 98.926859 26.679962 
z
" clip-path="url(#pc8cbbc2257)" style="fill: #b22222; fill-opacity: 0.75; stroke: #ffffff; stroke-width: 1.5; stroke-linejoin: miter"/>
   </g>
   <g id="patch_8">
    <path d="M 88.025543 64.08 
L 78.214358 64.08 
L 78.214358 33.659154 
L 88.025543 33.659154 
z
" clip-path="url(#pc8cbbc2257)" style="fill: #b22222; fill-opacity: 0.75; stroke: #ffffff; stroke-width: 1.5; stroke-linejoin: miter"/>
   </g>
   <g id="patch_9">
    <path d="M 77.124226 64.08 
L 67.313041 64.08 
L 67.313041 34.011867 
L 77.124226 34.011867 
z
" clip-path="url(#pc8cbbc2257)" style="fill: #b22222; fill-opacity: 0.75; stroke: #ffffff; stroke-width: 1.5; stroke-linejoin: miter"/>
   </g>
   <g id="patch_10">
    <path d="M 66.222909 64.08 
L 56.411724 64.08 
L 56.411724 48.605509 
L 66.222909 48.605509 
z
" clip-path="url(#pc8cbbc2257)" style="fill: #b22222; fill-opacity: 0.75; stroke: #ffffff; stroke-width: 1.5; stroke-linejoin: miter"/>
   </g>
   <g id="patch_11">
    <path d="M 55.321593 64.08 
L 45.510408 64.08 
L 45.510408 55.163924 
L 55.321593 55.163924 
z
" clip-path="url(#pc8cbbc2257)" style="fill: #b22222; fill-opacity: 0.75; stroke: #ffffff; stroke-width: 1.5; stroke-linejoin: miter"/>
   </g>
   <g id="patch_12">
    <path d="M 44.420276 64.08 
L 34.609091 64.08 
L 34.609091 60.592626 
L 44.420276 60.592626 
z
" clip-path="url(#pc8cbbc2257)" style="fill: #b22222; fill-opacity: 0.75; stroke: #ffffff; stroke-width: 1.5; stroke-linejoin: miter"/>
   </g>
   <g id="PolyCollection_1">
    <defs>
     <path id="m1ea0f345aa" d="M 186.790909 -7.92 
L 186.790909 -8.051883 
L 185.271975 -8.083096 
L 183.753042 -8.120924 
L 182.234108 -8.16658 
L 180.715174 -8.221452 
L 179.19624 -8.287125 
L 177.677307 -8.365394 
L 176.158373 -8.458283 
L 174.639439 -8.568054 
L 173.120505 -8.697227 
L 171.601572 -8.84858 
L 170.082638 -9.025162 
L 168.563704 -9.230291 
L 167.044771 -9.46755 
L 165.525837 -9.740778 
L 164.006903 -10.054049 
L 162.487969 -10.411649 
L 160.969036 -10.818041 
L 159.450102 -11.277821 
L 157.931168 -11.795659 
L 156.412234 -12.376242 
L 154.893301 -13.024195 
L 153.374367 -13.743993 
L 151.855433 -14.539873 
L 150.336499 -15.415724 
L 148.817566 -16.374983 
L 147.298632 -17.420513 
L 145.779698 -18.554487 
L 144.260764 -19.778267 
L 144.260764 -7.92 
L 144.260764 -7.92 
L 145.779698 -7.92 
L 147.298632 -7.92 
L 148.817566 -7.92 
L 150.336499 -7.92 
L 151.855433 -7.92 
L 153.374367 -7.92 
L 154.893301 -7.92 
L 156.412234 -7.92 
L 157.931168 -7.92 
L 159.450102 -7.92 
L 160.969036 -7.92 
L 162.487969 -7.92 
L 164.006903 -7.92 
L 165.525837 -7.92 
L 167.044771 -7.92 
L 168.563704 -7.92 
L 170.082638 -7.92 
L 171.601572 -7.92 
L 173.120505 -7.92 
L 174.639439 -7.92 
L 176.158373 -7.92 
L 177.677307 -7.92 
L 179.19624 -7.92 
L 180.715174 -7.92 
L 182.234108 -7.92 
L 183.753042 -7.92 
L 185.271975 -7.92 
L 186.790909 -7.92 
z
" style="stroke: #c0c0c0"/>
    </defs>
    <g clip-path="url(#pc8cbbc2257)">
     <use xlink:href="#m1ea0f345aa" x="0" y="72" style="fill: #c0c0c0; stroke: #c0c0c0"/>
    </g>
   </g>
   <g id="line2d_1">
    <path d="M 186.790909 63.948117 
L 185.271975 63.916904 
L 183.753042 63.879076 
L 182.234108 63.83342 
L 180.715174 63.778548 
L 179.19624 63.712875 
L 177.677307 63.634606 
L 176.158373 63.541717 
L 174.639439 63.431946 
L 173.120505 63.302773 
L 171.601572 63.15142 
L 170.082638 62.974838 
L 168.563704 62.769709 
L 167.044771 62.53245 
L 165.525837 62.259222 
L 164.006903 61.945951 
L 162.487969 61.588351 
L 160.969036 61.181959 
L 159.450102 60.722179 
L 157.931168 60.204341 
L 156.412234 59.623758 
L 154.893301 58.975805 
L 153.374367 58.256007 
L 151.855433 57.460127 
L 150.336499 56.584276 
L 148.817566 55.625017 
L 147.298632 54.579487 
L 145.779698 53.445513 
L 144.260764 52.221733 
L 142.741831 50.907716 
L 141.222897 49.504076 
L 139.703963 48.012574 
L 138.18503 46.436218 
L 136.666096 44.779337 
L 135.147162 43.047642 
L 133.628228 41.248267 
L 132.109295 39.38978 
L 130.590361 37.482168 
L 129.071427 35.536799 
L 127.552493 33.566341 
L 126.03356 31.58466 
L 124.514626 29.606684 
L 122.995692 27.648235 
L 121.476758 25.725834 
L 119.957825 23.856482 
L 118.438891 22.057418 
L 116.919957 20.34586 
L 115.401023 18.738736 
L 113.88209 17.252407 
L 112.363156 15.902393 
L 110.844222 14.703103 
L 109.325289 13.66758 
L 107.806355 12.807267 
L 106.287421 12.131793 
L 104.768487 11.648795 
L 103.249554 11.363776 
L 101.73062 11.28 
L 100.211686 11.398427 
L 98.692752 11.7177 
L 97.173819 12.234165 
L 95.654885 12.941944 
L 94.135951 13.833047 
L 92.617017 14.89752 
L 91.098084 16.123631 
L 89.57915 17.498085 
L 88.060216 19.006263 
L 86.541282 20.632482 
L 85.022349 22.360264 
L 83.503415 24.172612 
L 81.984481 26.052285 
L 80.465548 27.982066 
L 78.946614 29.945022 
L 77.42768 31.924735 
L 75.908746 33.905524 
L 74.389813 35.872632 
L 72.870879 37.81239 
L 71.351945 39.712346 
L 69.833011 41.561364 
L 68.314078 43.349699 
L 66.795144 45.069029 
L 65.27621 46.712465 
L 63.757276 48.274536 
L 62.238343 49.751145 
L 60.719409 51.139505 
L 59.200475 52.438057 
L 57.681541 53.646374 
L 56.162608 54.765057 
L 54.643674 55.795614 
L 53.12474 56.740346 
L 51.605807 57.602222 
L 50.086873 58.384764 
L 48.567939 59.09193 
L 47.049005 59.728003 
L 45.530072 60.297493 
L 44.011138 60.805039 
L 42.492204 61.25533 
L 40.97327 61.65303 
L 39.454337 62.002714 
L 37.935403 62.308817 
L 36.416469 62.575592 
" clip-path="url(#pc8cbbc2257)" style="fill: none; stroke: #b22222; stroke-width: 1.5; stroke-linecap: square"/>
   </g>
   <g id="patch_13">
    <path d="M 27 64.08 
L 194.4 64.08 
" style="fill: none; stroke: #000000; stroke-width: 0.8; stroke-linejoin: miter; stroke-linecap: square"/>
   </g>
  </g>
 </g>
 <defs>
  <clipPath id="pc8cbbc2257">
   <rect x="27" y="8.64" width="167.4" height="55.44"/>
  </clipPath>
 </defs>
</svg>
