<?xml version="1.0" encoding="utf-8" standalone="no"?>
<!DOCTYPE svg PUBLIC "-//W3C//DTD SVG 1.1//EN"
  "http://www.w3.org/Graphics/SVG/1.1/DTD/svg11.dtd">
<svg xmlns:xlink="http://www.w3.org/1999/xlink" width="360pt" height="133.2pt" viewBox="0 0 360 133.2" xmlns="http://www.w3.org/2000/svg" version="1.1">
 <metadata>
  <rdf:RDF xmlns:dc="http://purl.org/dc/elements/1.1/" xmlns:cc="http://creativecommons.org/ns#" xmlns:rdf="http://www.w3.org/1999/02/22-rdf-syntax-ns#">
   <cc:Work>
    <dc:type rdf:resource="http://purl.org/dc/dcmitype/StillImage"/>
    <dc:date>2022-09-21T15:28:37.089595</dc:date>
    <dc:format>image/svg+xml</dc:format>
    <dc:creator>
     <cc:Agent>
      <dc:title>Matplotlib v3.5.2, https://matplotlib.org/</dc:title>
     </cc:Agent>
    </dc:creator>
   </cc:Work>
  </rdf:RDF>
 </metadata>
 <defs>
  <style type="text/css">*{stroke-linejoin: round; stroke-linecap: butt}</style>
 </defs>
 <g id="figure_1">
  <g id="patch_1">
   <path d="M 0 133.2 
L 360 133.2 
L 360 0 
L 0 0 
z
" style="fill: #ffffff"/>
  </g>
  <g id="axes_1">
   <g id="patch_2">
    <path d="M 3.6 131.868 
L 111.6 131.868 
L 111.6 0 
L 3.6 0 
z
" style="fill: #ffffff"/>
   </g>
   <g id="matplotlib.axis_1">
    <g id="ytick_1">
     <g id="line2d_1">
      <defs>
       <path id="m081a2c17f8" d="M 0 0 
L -3.5 0 
" style="stroke: #000000; stroke-width: 0.8"/>
      </defs>
      <g>
       <use xlink:href="#m081a2c17f8" x="3.6" y="94.600957" style="stroke: #000000; stroke-width: 0.8"/>
      </g>
     </g>
     <g id="text_1">
      <!--   -->
      <g transform="translate(-5.6225 97.464082)scale(0.08 -0.08)">
       <defs>
        <path id="ArialMT-20" transform="scale(0.015625)"/>
       </defs>
       <use xlink:href="#ArialMT-20"/>
      </g>
     </g>
    </g>
    <g id="ytick_2">
     <g id="line2d_2">
      <g>
       <use xlink:href="#m081a2c17f8" x="3.6" y="37.267043" style="stroke: #000000; stroke-width: 0.8"/>
      </g>
     </g>
     <g id="text_2">
      <!--   -->
      <g transform="translate(-5.6225 40.130168)scale(0.08 -0.08)">
       <use xlink:href="#ArialMT-20"/>
      </g>
     </g>
    </g>
   </g>
   <g id="line2d_3">
    <path d="M 3.6 131.868 
L 3.6 0 
" clip-path="url(#pb51054770e)" style="fill: none; stroke: #a9a9a9; stroke-width: 1.5; stroke-linecap: square"/>
   </g>
   <g id="patch_3">
    <path d="M 3.6 131.868 
L 3.6 -0 
" style="fill: none; stroke: #000000; stroke-width: 0.8; stroke-linejoin: miter; stroke-linecap: square"/>
   </g>
   <g id="line2d_4">
    <path d="M 5.224728 123.267913 
L 5.500919 122.109652 
L 5.815707 120.951391 
L 6.172925 119.79313 
L 6.576513 118.63487 
L 7.030476 117.476609 
L 7.538827 116.318348 
L 8.105524 115.160087 
L 8.734399 114.001826 
L 9.429078 112.843565 
L 10.192892 111.685304 
L 11.028789 110.527043 
L 11.93923 109.368783 
L 12.926095 108.210522 
L 13.990576 107.052261 
L 15.13308 105.894 
L 16.353133 104.735739 
L 17.649291 103.577478 
L 19.019057 102.419217 
L 20.458819 101.260957 
L 21.963793 100.102696 
L 23.527992 98.944435 
L 25.144211 97.786174 
L 26.804038 96.627913 
L 28.497884 95.469652 
L 30.215047 94.311391 
L 31.943791 93.15313 
L 33.671462 91.99487 
L 35.384623 90.836609 
L 37.069212 89.678348 
L 38.710728 88.520087 
L 40.294425 87.361826 
L 41.805531 86.203565 
L 43.229475 85.045304 
L 44.552111 83.887043 
L 45.75996 82.728783 
L 46.840429 81.570522 
L 47.782034 80.412261 
L 48.574602 79.254 
L 49.209453 78.095739 
L 49.679558 76.937478 
L 49.97967 75.779217 
L 50.106421 74.620957 
L 50.058383 73.462696 
L 49.836098 72.304435 
L 49.442065 71.146174 
L 48.880694 69.987913 
L 48.158226 68.829652 
L 47.282614 67.671391 
L 46.263379 66.51313 
L 45.11144 65.35487 
L 43.838914 64.196609 
L 42.45891 63.038348 
L 40.985302 61.880087 
L 39.432498 60.721826 
L 37.815208 59.563565 
L 36.148216 58.405304 
L 34.44616 57.247043 
L 32.723323 56.088783 
L 30.993446 54.930522 
L 29.269554 53.772261 
L 27.56381 52.614 
L 25.887397 51.455739 
L 24.250412 50.297478 
L 22.661805 49.139217 
L 21.129326 47.980957 
L 19.659511 46.822696 
L 18.257684 45.664435 
L 16.927978 44.506174 
L 15.673387 43.347913 
L 14.495819 42.189652 
L 13.396175 41.031391 
L 12.374434 39.87313 
L 11.429744 38.71487 
L 10.560525 37.556609 
L 9.764563 36.398348 
L 9.039118 35.240087 
L 8.38102 34.081826 
L 7.786765 32.923565 
L 7.252604 31.765304 
L 6.774625 30.607043 
L 6.348832 29.448783 
L 5.971209 28.290522 
L 5.637781 27.132261 
L 5.344661 25.974 
L 5.088094 24.815739 
L 4.864491 23.657478 
L 4.670451 22.499217 
L 4.502784 21.340957 
L 4.35852 20.182696 
L 4.234916 19.024435 
L 4.129457 17.866174 
L 4.039857 16.707913 
L 3.964048 15.549652 
L 3.900173 14.391391 
L 3.846575 13.23313 
L 3.801787 12.07487 
L 3.764515 10.916609 
L 3.733623 9.758348 
L 3.708124 8.600087 
" clip-path="url(#pb51054770e)" style="fill: none; stroke: #1e90ff; stroke-width: 1.5; stroke-linecap: square"/>
   </g>
   <g id="line2d_5">
    <path d="M 6.96771 123.267913 
L 7.9131 122.109652 
L 9.067806 120.951391 
L 10.461288 119.79313 
L 12.1225 118.63487 
L 14.078456 117.476609 
L 16.352532 116.318348 
L 18.96259 115.160087 
L 21.918982 114.001826 
L 25.22256 112.843565 
L 28.862816 111.685304 
L 32.816304 110.527043 
L 37.045498 109.368783 
L 41.498231 108.210522 
L 46.107845 107.052261 
L 50.794143 105.894 
L 55.465194 104.735739 
L 60.019961 103.577478 
L 64.3517 102.419217 
L 68.351966 101.260957 
L 71.915045 100.102696 
L 74.942552 98.944435 
L 77.347923 97.786174 
L 79.060525 96.627913 
L 80.029097 95.469652 
L 80.224298 94.311391 
L 79.640185 93.15313 
L 78.294512 91.99487 
L 76.227836 90.836609 
L 73.501483 89.678348 
L 70.194529 88.520087 
L 66.399992 87.361826 
L 62.220497 86.203565 
L 57.763695 85.045304 
L 53.137712 83.887043 
L 48.446906 82.728783 
L 43.78814 81.570522 
L 39.247756 80.412261 
L 34.899353 79.254 
L 30.802411 78.095739 
L 27.001749 76.937478 
L 23.527743 75.779217 
L 20.397196 74.620957 
L 17.614717 73.462696 
L 15.17446 72.304435 
L 13.062068 71.146174 
L 11.256675 69.987913 
L 9.732863 68.829652 
L 8.462451 67.671391 
L 7.416067 66.51313 
L 6.564461 65.35487 
L 5.879524 64.196609 
L 5.335049 63.038348 
L 4.907218 61.880087 
L 4.574884 60.721826 
L 4.31966 59.563565 
L 4.12586 58.405304 
L 3.980349 57.247043 
L 3.872309 56.088783 
L 3.79298 54.930522 
L 3.735373 53.772261 
L 3.693998 52.614 
L 3.664606 51.455739 
L 3.643954 50.297478 
L 3.6296 49.139217 
L 3.619731 47.980957 
L 3.613019 46.822696 
L 3.608503 45.664435 
L 3.605497 44.506174 
L 3.603518 43.347913 
L 3.602228 42.189652 
L 3.601397 41.031391 
L 3.600867 39.87313 
L 3.600533 38.71487 
L 3.600324 37.556609 
L 3.600195 36.398348 
L 3.600116 35.240087 
L 3.600069 34.081826 
L 3.60004 32.923565 
L 3.600023 31.765304 
L 3.600013 30.607043 
L 3.600007 29.448783 
L 3.600004 28.290522 
L 3.600002 27.132261 
L 3.600001 25.974 
L 3.600001 24.815739 
L 3.6 23.657478 
L 3.6 22.499217 
L 3.6 21.340957 
L 3.6 20.182696 
L 3.6 19.024435 
L 3.6 17.866174 
L 3.6 16.707913 
L 3.6 15.549652 
L 3.6 14.391391 
L 3.6 13.23313 
L 3.6 12.07487 
L 3.6 10.916609 
L 3.6 9.758348 
L 3.6 8.600087 
" clip-path="url(#pb51054770e)" style="fill: none; stroke: #808080; stroke-width: 1.5; stroke-linecap: square"/>
   </g>
   <g id="line2d_6">
    <path d="M 3.808338 123.267913 
L 3.912181 122.109652 
L 4.061296 120.951391 
L 4.272182 119.79313 
L 4.565892 118.63487 
L 4.968691 117.476609 
L 5.512569 116.318348 
L 6.235503 115.160087 
L 7.181333 114.001826 
L 8.39911 112.843565 
L 9.941785 111.685304 
L 11.864129 110.527043 
L 14.219827 109.368783 
L 17.057754 108.210522 
L 20.417541 107.052261 
L 24.324651 105.894 
L 28.785276 104.735739 
L 33.781512 103.577478 
L 39.267286 102.419217 
L 45.165587 101.260957 
L 51.367505 100.102696 
L 57.733485 98.944435 
L 64.09705 97.786174 
L 70.271035 96.627913 
L 76.056104 95.469652 
L 81.251089 94.311391 
L 85.66442 93.15313 
L 89.125781 91.99487 
L 91.496985 90.836609 
L 92.681125 89.678348 
L 92.629143 88.520087 
L 91.343202 87.361826 
L 88.876536 86.203565 
L 85.329795 85.045304 
L 80.844231 83.887043 
L 75.592373 82.728783 
L 69.76704 81.570522 
L 63.569677 80.412261 
L 57.198976 79.254 
L 50.840673 78.095739 
L 44.659195 76.937478 
L 38.791646 75.779217 
L 33.344284 74.620957 
L 28.391467 73.462696 
L 23.976789 72.304435 
L 20.115968 71.146174 
L 16.801008 69.987913 
L 14.005069 68.829652 
L 11.687562 67.671391 
L 9.799049 66.51313 
L 8.285622 65.35487 
L 7.092563 64.196609 
L 6.167179 63.038348 
L 5.460813 61.880087 
L 4.930099 60.721826 
L 4.537562 59.563565 
L 4.251705 58.405304 
L 4.046721 57.247043 
L 3.901966 56.088783 
L 3.801286 54.930522 
L 3.732313 53.772261 
L 3.685768 52.614 
L 3.654826 51.455739 
L 3.634561 50.297478 
L 3.621484 49.139217 
L 3.61317 47.980957 
L 3.607961 46.822696 
L 3.604746 45.664435 
L 3.60279 44.506174 
L 3.601617 43.347913 
L 3.600925 42.189652 
L 3.600521 41.031391 
L 3.60029 39.87313 
L 3.600159 38.71487 
L 3.600086 37.556609 
L 3.600046 36.398348 
L 3.600024 35.240087 
L 3.600012 34.081826 
L 3.600006 32.923565 
L 3.600003 31.765304 
L 3.600002 30.607043 
L 3.600001 29.448783 
L 3.6 28.290522 
L 3.6 27.132261 
L 3.6 25.974 
L 3.6 24.815739 
L 3.6 23.657478 
L 3.6 22.499217 
L 3.6 21.340957 
L 3.6 20.182696 
L 3.6 19.024435 
L 3.6 17.866174 
L 3.6 16.707913 
L 3.6 15.549652 
L 3.6 14.391391 
L 3.6 13.23313 
L 3.6 12.07487 
L 3.6 10.916609 
L 3.6 9.758348 
L 3.6 8.600087 
" clip-path="url(#pb51054770e)" style="fill: none; stroke: #cc78bc; stroke-width: 1.5; stroke-linecap: square"/>
   </g>
   <g id="PathCollection_1">
    <defs>
     <path id="m5d7016e227" d="M 0 -2.738613 
L -0.614857 -0.846278 
L -2.604576 -0.846278 
L -0.994859 0.323249 
L -1.609716 2.215584 
L -0 1.046057 
L 1.609716 2.215584 
L 0.994859 0.323249 
L 2.604576 -0.846278 
L 0.614857 -0.846278 
z
" style="stroke: #029e73"/>
    </defs>
    <g>
     <use xlink:href="#m5d7016e227" x="92.681125" y="89.678348" style="fill: #029e73; stroke: #029e73"/>
    </g>
   </g>
  </g>
  <g id="axes_2">
   <g id="patch_4">
    <path d="M 127.8 131.868 
L 235.8 131.868 
L 235.8 0 
L 127.8 0 
z
" style="fill: #ffffff"/>
   </g>
   <g id="matplotlib.axis_2">
    <g id="ytick_3">
     <g id="line2d_7">
      <g>
       <use xlink:href="#m081a2c17f8" x="127.8" y="94.600957" style="stroke: #000000; stroke-width: 0.8"/>
      </g>
     </g>
     <g id="text_3">
      <!--   -->
      <g transform="translate(118.5775 97.464082)scale(0.08 -0.08)">
       <use xlink:href="#ArialMT-20"/>
      </g>
     </g>
    </g>
    <g id="ytick_4">
     <g id="line2d_8">
      <g>
       <use xlink:href="#m081a2c17f8" x="127.8" y="37.267043" style="stroke: #000000; stroke-width: 0.8"/>
      </g>
     </g>
     <g id="text_4">
      <!--   -->
      <g transform="translate(118.5775 40.130168)scale(0.08 -0.08)">
       <use xlink:href="#ArialMT-20"/>
      </g>
     </g>
    </g>
   </g>
   <g id="line2d_9">
    <path d="M 127.8 131.868 
L 127.8 0 
" clip-path="url(#p38084cbb1e)" style="fill: none; stroke: #a9a9a9; stroke-width: 1.5; stroke-linecap: square"/>
   </g>
   <g id="patch_5">
    <path d="M 127.8 131.868 
L 127.8 -0 
" style="fill: none; stroke: #000000; stroke-width: 0.8; stroke-linejoin: miter; stroke-linecap: square"/>
   </g>
   <g id="line2d_10">
    <path d="M 129.425008 123.267913 
L 129.701247 122.109652 
L 130.01609 120.951391 
L 130.373369 119.79313 
L 130.777027 118.63487 
L 131.231069 117.476609 
L 131.739507 116.318348 
L 132.306302 115.160087 
L 132.935286 114.001826 
L 133.630084 112.843565 
L 134.394031 111.685304 
L 135.230072 110.527043 
L 136.140671 109.368783 
L 137.127706 108.210522 
L 138.19237 107.052261 
L 139.335072 105.894 
L 140.555336 104.735739 
L 141.851717 103.577478 
L 143.22172 102.419217 
L 144.661731 101.260957 
L 146.166965 100.102696 
L 147.731434 98.944435 
L 149.347932 97.786174 
L 151.008045 96.627913 
L 152.702184 95.469652 
L 154.419643 94.311391 
L 156.148686 93.15313 
L 157.876656 91.99487 
L 159.590112 90.836609 
L 161.274993 89.678348 
L 162.916792 88.520087 
L 164.500762 87.361826 
L 166.01213 86.203565 
L 167.436319 85.045304 
L 168.759184 83.887043 
L 169.967242 82.728783 
L 171.047897 81.570522 
L 171.989665 80.412261 
L 172.782369 79.254 
L 173.41733 78.095739 
L 173.887516 76.937478 
L 174.187681 75.779217 
L 174.314453 74.620957 
L 174.266407 73.462696 
L 174.044084 72.304435 
L 173.649982 71.146174 
L 173.088515 69.987913 
L 172.365922 68.829652 
L 171.490158 67.671391 
L 170.470748 66.51313 
L 169.318609 65.35487 
L 168.045864 64.196609 
L 166.665622 63.038348 
L 165.191759 61.880087 
L 163.638687 60.721826 
L 162.021117 59.563565 
L 160.353837 58.405304 
L 158.651487 57.247043 
L 156.928353 56.088783 
L 155.198177 54.930522 
L 153.473987 53.772261 
L 151.767949 52.614 
L 150.091246 51.455739 
L 148.453979 50.297478 
L 146.865097 49.139217 
L 145.332353 47.980957 
L 143.862285 46.822696 
L 142.460215 45.664435 
L 141.13028 44.506174 
L 139.875472 43.347913 
L 138.6977 42.189652 
L 137.597867 41.031391 
L 136.575949 39.87313 
L 135.631097 38.71487 
L 134.761727 37.556609 
L 133.965627 36.398348 
L 133.240057 35.240087 
L 132.581846 34.081826 
L 131.987489 32.923565 
L 131.453235 31.765304 
L 130.975173 30.607043 
L 130.549307 29.448783 
L 130.171619 28.290522 
L 129.838133 27.132261 
L 129.544962 25.974 
L 129.288351 24.815739 
L 129.064709 23.657478 
L 128.870636 22.499217 
L 128.70294 21.340957 
L 128.558651 20.182696 
L 128.435025 19.024435 
L 128.329549 17.866174 
L 128.239933 16.707913 
L 128.164111 15.549652 
L 128.100224 14.391391 
L 128.046618 13.23313 
L 128.001822 12.07487 
L 127.964543 10.916609 
L 127.933646 9.758348 
L 127.908143 8.600087 
" clip-path="url(#p38084cbb1e)" style="fill: none; stroke: #1e90ff; stroke-width: 1.5; stroke-linecap: square"/>
   </g>
   <g id="line2d_11">
    <path d="M 127.800284 123.267913 
L 127.800468 122.109652 
L 127.800765 120.951391 
L 127.801235 119.79313 
L 127.801975 118.63487 
L 127.803125 117.476609 
L 127.804896 116.318348 
L 127.807593 115.160087 
L 127.811654 114.001826 
L 127.817708 112.843565 
L 127.826633 111.685304 
L 127.839649 110.527043 
L 127.858427 109.368783 
L 127.885224 108.210522 
L 127.92305 107.052261 
L 127.975862 105.894 
L 128.048789 104.735739 
L 128.148384 103.577478 
L 128.282896 102.419217 
L 128.46255 101.260957 
L 128.699813 100.102696 
L 129.009637 98.944435 
L 129.409632 97.786174 
L 129.920152 96.627913 
L 130.564242 95.469652 
L 131.36742 94.311391 
L 132.357233 93.15313 
L 133.562581 91.99487 
L 135.012765 90.836609 
L 136.736252 89.678348 
L 138.759176 88.520087 
L 141.103602 87.361826 
L 143.78562 86.203565 
L 146.813348 85.045304 
L 150.184973 83.887043 
L 153.886958 82.728783 
L 157.892564 81.570522 
L 162.160842 80.412261 
L 166.63625 79.254 
L 171.248987 78.095739 
L 175.916153 76.937478 
L 180.543751 75.779217 
L 185.029508 74.620957 
L 189.266414 73.462696 
L 193.146845 72.304435 
L 196.567026 71.146174 
L 199.431615 69.987913 
L 201.658097 68.829652 
L 203.180734 67.671391 
L 203.953784 66.51313 
L 203.953784 65.35487 
L 203.180734 64.196609 
L 201.658097 63.038348 
L 199.431615 61.880087 
L 196.567026 60.721826 
L 193.146845 59.563565 
L 189.266414 58.405304 
L 185.029508 57.247043 
L 180.543751 56.088783 
L 175.916153 54.930522 
L 171.248987 53.772261 
L 166.63625 52.614 
L 162.160842 51.455739 
L 157.892564 50.297478 
L 153.886958 49.139217 
L 150.184973 47.980957 
L 146.813348 46.822696 
L 143.78562 45.664435 
L 141.103602 44.506174 
L 138.759176 43.347913 
L 136.736252 42.189652 
L 135.012765 41.031391 
L 133.562581 39.87313 
L 132.357233 38.71487 
L 131.36742 37.556609 
L 130.564242 36.398348 
L 129.920152 35.240087 
L 129.409632 34.081826 
L 129.009637 32.923565 
L 128.699813 31.765304 
L 128.46255 30.607043 
L 128.282896 29.448783 
L 128.148384 28.290522 
L 128.048789 27.132261 
L 127.975862 25.974 
L 127.92305 24.815739 
L 127.885224 23.657478 
L 127.858427 22.499217 
L 127.839649 21.340957 
L 127.826633 20.182696 
L 127.817708 19.024435 
L 127.811654 17.866174 
L 127.807593 16.707913 
L 127.804896 15.549652 
L 127.803125 14.391391 
L 127.801975 13.23313 
L 127.801235 12.07487 
L 127.800765 10.916609 
L 127.800468 9.758348 
L 127.800284 8.600087 
" clip-path="url(#p38084cbb1e)" style="fill: none; stroke: #808080; stroke-width: 1.5; stroke-linecap: square"/>
   </g>
   <g id="line2d_12">
    <path d="M 127.800012 123.267913 
L 127.800024 122.109652 
L 127.800046 120.951391 
L 127.800086 119.79313 
L 127.800159 118.63487 
L 127.80029 117.476609 
L 127.800522 116.318348 
L 127.800925 115.160087 
L 127.801619 114.001826 
L 127.802792 112.843565 
L 127.80475 111.685304 
L 127.807968 110.527043 
L 127.813181 109.368783 
L 127.821501 108.210522 
L 127.834588 107.052261 
L 127.854868 105.894 
L 127.885832 104.735739 
L 127.932408 103.577478 
L 128.001425 102.419217 
L 128.102167 101.260957 
L 128.247008 100.102696 
L 128.452108 98.944435 
L 128.738119 97.786174 
L 129.130857 96.627913 
L 129.661827 95.469652 
L 130.368516 94.311391 
L 131.294298 93.15313 
L 132.487836 91.99487 
L 134.001827 90.836609 
L 135.89099 89.678348 
L 138.209228 88.520087 
L 141.005964 87.361826 
L 144.321768 86.203565 
L 148.18345 85.045304 
L 152.598971 83.887043 
L 157.552565 82.728783 
L 163.000591 81.570522 
L 168.868637 80.412261 
L 175.05039 79.254 
L 181.408703 78.095739 
L 187.779105 76.937478 
L 193.975839 75.779217 
L 199.800201 74.620957 
L 205.050759 73.462696 
L 209.534721 72.304435 
L 213.079609 71.146174 
L 215.544237 69.987913 
L 216.828035 68.829652 
L 216.877857 67.671391 
L 215.69163 66.51313 
L 213.318498 65.35487 
L 209.855444 64.196609 
L 205.440713 63.038348 
L 200.244667 61.880087 
L 194.458895 60.721826 
L 188.284568 59.563565 
L 181.921004 58.405304 
L 175.555335 57.247043 
L 169.35399 56.088783 
L 163.45647 54.930522 
L 157.971629 53.772261 
L 152.976418 52.614 
L 148.51686 51.455739 
L 144.610812 50.297478 
L 141.252043 49.139217 
L 138.415063 47.980957 
L 136.060222 46.822696 
L 134.138633 45.664435 
L 132.596609 44.506174 
L 131.37938 43.347913 
L 130.434002 42.189652 
L 129.711433 41.031391 
L 129.167845 39.87313 
L 128.765272 38.71487 
L 128.471733 37.556609 
L 128.260977 36.398348 
L 128.111958 35.240087 
L 128.008184 34.081826 
L 127.937004 32.923565 
L 127.888911 31.765304 
L 127.8569 30.607043 
L 127.835909 29.448783 
L 127.822347 28.290522 
L 127.813715 27.132261 
L 127.8083 25.974 
L 127.804954 24.815739 
L 127.802915 23.657478 
L 127.801692 22.499217 
L 127.800968 21.340957 
L 127.800546 20.182696 
L 127.800304 19.024435 
L 127.800167 17.866174 
L 127.80009 16.707913 
L 127.800048 15.549652 
L 127.800025 14.391391 
L 127.800013 13.23313 
L 127.800007 12.07487 
L 127.800003 10.916609 
L 127.800002 9.758348 
L 127.800001 8.600087 
" clip-path="url(#p38084cbb1e)" style="fill: none; stroke: #cc78bc; stroke-width: 1.5; stroke-linecap: square"/>
   </g>
   <g id="PathCollection_2">
    <g>
     <use xlink:href="#m5d7016e227" x="216.877857" y="67.671391" style="fill: #029e73; stroke: #029e73"/>
    </g>
   </g>
  </g>
  <g id="axes_3">
   <g id="patch_6">
    <path d="M 252 131.868 
L 360 131.868 
L 360 0 
L 252 0 
z
" style="fill: #ffffff"/>
   </g>
   <g id="matplotlib.axis_3">
    <g id="ytick_5">
     <g id="line2d_13">
      <g>
       <use xlink:href="#m081a2c17f8" x="252" y="94.600957" style="stroke: #000000; stroke-width: 0.8"/>
      </g>
     </g>
     <g id="text_5">
      <!--   -->
      <g transform="translate(242.7775 97.464082)scale(0.08 -0.08)">
       <use xlink:href="#ArialMT-20"/>
      </g>
     </g>
    </g>
    <g id="ytick_6">
     <g id="line2d_14">
      <g>
       <use xlink:href="#m081a2c17f8" x="252" y="37.267043" style="stroke: #000000; stroke-width: 0.8"/>
      </g>
     </g>
     <g id="text_6">
      <!--   -->
      <g transform="translate(242.7775 40.130168)scale(0.08 -0.08)">
       <use xlink:href="#ArialMT-20"/>
      </g>
     </g>
    </g>
   </g>
   <g id="line2d_15">
    <path d="M 252 131.868 
L 252 0 
" clip-path="url(#pc08a41e469)" style="fill: none; stroke: #a9a9a9; stroke-width: 1.5; stroke-linecap: square"/>
   </g>
   <g id="patch_7">
    <path d="M 252 131.868 
L 252 -0 
" style="fill: none; stroke: #000000; stroke-width: 0.8; stroke-linejoin: miter; stroke-linecap: square"/>
   </g>
   <g id="line2d_16">
    <path d="M 253.624325 123.267913 
L 253.900447 122.109652 
L 254.215158 120.951391 
L 254.572287 119.79313 
L 254.975775 118.63487 
L 255.429626 117.476609 
L 255.937851 116.318348 
L 256.504407 115.160087 
L 257.133126 114.001826 
L 257.827633 112.843565 
L 258.591258 111.685304 
L 259.426948 110.527043 
L 260.337164 109.368783 
L 261.323784 108.210522 
L 262.388001 107.052261 
L 263.530221 105.894 
L 264.749972 104.735739 
L 266.045809 103.577478 
L 267.415236 102.419217 
L 268.854641 101.260957 
L 270.359242 100.102696 
L 271.923053 98.944435 
L 273.538871 97.786174 
L 275.198287 96.627913 
L 276.891713 95.469652 
L 278.60845 94.311391 
L 280.336766 93.15313 
L 282.064009 91.99487 
L 283.776745 90.836609 
L 285.460917 89.678348 
L 287.102026 88.520087 
L 288.68533 87.361826 
L 290.196063 86.203565 
L 291.619653 85.045304 
L 292.941962 83.887043 
L 294.149511 82.728783 
L 295.229712 81.570522 
L 296.171084 80.412261 
L 296.963455 79.254 
L 297.598149 78.095739 
L 298.068137 76.937478 
L 298.368175 75.779217 
L 298.494895 74.620957 
L 298.446869 73.462696 
L 298.224639 72.304435 
L 297.830703 71.146174 
L 297.269472 69.987913 
L 296.547183 68.829652 
L 295.671788 67.671391 
L 294.652806 66.51313 
L 293.501152 65.35487 
L 292.228941 64.196609 
L 290.84928 63.038348 
L 289.376037 61.880087 
L 287.823617 60.721826 
L 286.206728 59.563565 
L 284.540149 58.405304 
L 282.838515 57.247043 
L 281.116105 56.088783 
L 279.386657 54.930522 
L 277.663192 53.772261 
L 275.957871 52.614 
L 274.281873 51.455739 
L 272.645294 50.297478 
L 271.05708 49.139217 
L 269.524981 47.980957 
L 268.055531 46.822696 
L 266.654051 45.664435 
L 265.324675 44.506174 
L 264.070394 43.347913 
L 262.893118 42.189652 
L 261.793747 41.031391 
L 260.772259 39.87313 
L 259.827804 38.71487 
L 258.958799 37.556609 
L 258.163035 36.398348 
L 257.43777 35.240087 
L 256.779836 34.081826 
L 256.185728 32.923565 
L 255.651699 31.765304 
L 255.173838 30.607043 
L 254.748151 29.448783 
L 254.370622 28.290522 
L 254.037276 27.132261 
L 253.744228 25.974 
L 253.487725 24.815739 
L 253.264177 23.657478 
L 253.070186 22.499217 
L 252.902561 21.340957 
L 252.758332 20.182696 
L 252.634758 19.024435 
L 252.529326 17.866174 
L 252.439748 16.707913 
L 252.363958 15.549652 
L 252.300098 14.391391 
L 252.246514 13.23313 
L 252.201737 12.07487 
L 252.164474 10.916609 
L 252.13359 9.758348 
L 252.108097 8.600087 
" clip-path="url(#pc08a41e469)" style="fill: none; stroke: #1e90ff; stroke-width: 1.5; stroke-linecap: square"/>
   </g>
   <g id="line2d_17">
    <path d="M 252 123.267913 
L 252 122.109652 
L 252 120.951391 
L 252 119.79313 
L 252 118.63487 
L 252 117.476609 
L 252 116.318348 
L 252 115.160087 
L 252 114.001826 
L 252 112.843565 
L 252 111.685304 
L 252 110.527043 
L 252 109.368783 
L 252 108.210522 
L 252.000001 107.052261 
L 252.000001 105.894 
L 252.000002 104.735739 
L 252.000004 103.577478 
L 252.000007 102.419217 
L 252.000013 101.260957 
L 252.000023 100.102696 
L 252.00004 98.944435 
L 252.000069 97.786174 
L 252.000116 96.627913 
L 252.000195 95.469652 
L 252.000324 94.311391 
L 252.000533 93.15313 
L 252.000867 91.99487 
L 252.001397 90.836609 
L 252.002228 89.678348 
L 252.003517 88.520087 
L 252.005496 87.361826 
L 252.008501 86.203565 
L 252.013016 85.045304 
L 252.019726 83.887043 
L 252.029593 82.728783 
L 252.043943 81.570522 
L 252.06459 80.412261 
L 252.093975 79.254 
L 252.135339 78.095739 
L 252.192932 76.937478 
L 252.272242 75.779217 
L 252.380254 74.620957 
L 252.52573 73.462696 
L 252.719481 72.304435 
L 252.974643 71.146174 
L 253.306894 69.987913 
L 253.734619 68.829652 
L 254.278959 67.671391 
L 254.963726 66.51313 
L 255.815121 65.35487 
L 256.861245 64.196609 
L 258.131343 63.038348 
L 259.654778 61.880087 
L 261.459723 60.721826 
L 263.571592 59.563565 
L 266.011244 58.405304 
L 268.793033 57.247043 
L 271.922804 56.088783 
L 275.395949 54.930522 
L 279.195669 53.772261 
L 283.291596 52.614 
L 287.638921 51.455739 
L 292.178179 50.297478 
L 296.835791 49.139217 
L 301.525435 47.980957 
L 306.150271 46.822696 
L 310.605969 45.664435 
L 314.784427 44.506174 
L 318.578024 43.347913 
L 321.884159 42.189652 
L 324.609836 41.031391 
L 326.676 39.87313 
L 328.021339 38.71487 
L 328.605307 37.556609 
L 328.410154 36.398348 
L 327.441823 35.240087 
L 325.729645 34.081826 
L 323.32487 32.923565 
L 320.298114 31.765304 
L 316.735918 30.607043 
L 312.736643 29.448783 
L 308.405978 28.290522 
L 303.85234 27.132261 
L 299.182447 25.974 
L 294.49731 24.815739 
L 289.888838 23.657478 
L 285.437209 22.499217 
L 281.209063 21.340957 
L 277.256554 20.182696 
L 273.617201 19.024435 
L 270.314442 17.866174 
L 267.358783 16.707913 
L 264.749372 15.549652 
L 262.475859 14.391391 
L 260.520388 13.23313 
L 258.859587 12.07487 
L 257.466451 10.916609 
L 256.312031 9.758348 
L 255.366876 8.600087 
" clip-path="url(#pc08a41e469)" style="fill: none; stroke: #808080; stroke-width: 1.5; stroke-linecap: square"/>
   </g>
   <g id="line2d_18">
    <path d="M 252 123.267913 
L 252 122.109652 
L 252 120.951391 
L 252 119.79313 
L 252 118.63487 
L 252 117.476609 
L 252 116.318348 
L 252 115.160087 
L 252 114.001826 
L 252 112.843565 
L 252 111.685304 
L 252 110.527043 
L 252 109.368783 
L 252 108.210522 
L 252.000001 107.052261 
L 252.000002 105.894 
L 252.000003 104.735739 
L 252.000006 103.577478 
L 252.000012 102.419217 
L 252.000023 101.260957 
L 252.000043 100.102696 
L 252.000082 98.944435 
L 252.000151 97.786174 
L 252.000276 96.627913 
L 252.000497 95.469652 
L 252.000883 94.311391 
L 252.001547 93.15313 
L 252.002671 91.99487 
L 252.004548 90.836609 
L 252.007639 89.678348 
L 252.01265 88.520087 
L 252.02066 87.361826 
L 252.033272 86.203565 
L 252.052841 85.045304 
L 252.082756 83.887043 
L 252.127809 82.728783 
L 252.194651 81.570522 
L 252.29234 80.412261 
L 252.432965 79.254 
L 252.632344 78.095739 
L 252.910727 76.937478 
L 253.293476 75.779217 
L 253.811602 74.620957 
L 254.502086 73.462696 
L 255.407817 72.304435 
L 256.577046 71.146174 
L 258.062182 69.987913 
L 259.917854 68.829652 
L 262.198136 67.671391 
L 264.952955 66.51313 
L 268.223768 65.35487 
L 272.038693 64.196609 
L 276.407418 63.038348 
L 281.316294 61.880087 
L 286.724106 60.721826 
L 292.559059 59.563565 
L 298.717486 58.405304 
L 305.064714 57.247043 
L 311.438384 56.088783 
L 317.654263 54.930522 
L 323.514427 53.772261 
L 328.817325 52.614 
L 333.369094 51.455739 
L 336.995233 50.297478 
L 339.551672 49.139217 
L 340.934262 47.980957 
L 341.085814 46.822696 
L 340.000022 45.664435 
L 337.721902 44.506174 
L 334.344691 43.347913 
L 330.003519 42.189652 
L 324.866443 41.031391 
L 319.123676 39.87313 
L 312.975965 38.71487 
L 306.623109 37.556609 
L 300.253513 36.398348 
L 294.035503 35.240087 
L 288.110902 34.081826 
L 282.591109 32.923565 
L 277.555647 31.765304 
L 273.052968 30.607043 
L 269.10309 29.448783 
L 265.701578 28.290522 
L 262.824339 27.132261 
L 260.432707 25.974 
L 258.478394 24.815739 
L 256.907977 23.657478 
L 255.666676 22.499217 
L 254.701328 21.340957 
L 253.962532 20.182696 
L 253.406019 19.024435 
L 252.993345 17.866174 
L 252.69206 16.707913 
L 252.47547 15.549652 
L 252.322134 14.391391 
L 252.215221 13.23313 
L 252.141797 12.07487 
L 252.092127 10.916609 
L 252.059025 9.758348 
L 252.037293 8.600087 
" clip-path="url(#pc08a41e469)" style="fill: none; stroke: #cc78bc; stroke-width: 1.5; stroke-linecap: square"/>
   </g>
   <g id="PathCollection_3">
    <g>
     <use xlink:href="#m5d7016e227" x="341.085814" y="46.822696" style="fill: #029e73; stroke: #029e73"/>
    </g>
   </g>
  </g>
 </g>
 <defs>
  <clipPath id="pb51054770e">
   <rect x="3.6" y="0" width="108" height="131.868"/>
  </clipPath>
  <clipPath id="p38084cbb1e">
   <rect x="127.8" y="0" width="108" height="131.868"/>
  </clipPath>
  <clipPath id="pc08a41e469">
   <rect x="252" y="0" width="108" height="131.868"/>
  </clipPath>
 </defs>
</svg>
