<?xml version="1.0" encoding="utf-8" standalone="no"?>
<!DOCTYPE svg PUBLIC "-//W3C//DTD SVG 1.1//EN"
  "http://www.w3.org/Graphics/SVG/1.1/DTD/svg11.dtd">
<svg xmlns:xlink="http://www.w3.org/1999/xlink" width="108pt" height="288pt" viewBox="0 0 108 288" xmlns="http://www.w3.org/2000/svg" version="1.1">
 <metadata>
  <rdf:RDF xmlns:dc="http://purl.org/dc/elements/1.1/" xmlns:cc="http://creativecommons.org/ns#" xmlns:rdf="http://www.w3.org/1999/02/22-rdf-syntax-ns#">
   <cc:Work>
    <dc:type rdf:resource="http://purl.org/dc/dcmitype/StillImage"/>
    <dc:date>2022-09-21T15:28:36.266081</dc:date>
    <dc:format>image/svg+xml</dc:format>
    <dc:creator>
     <cc:Agent>
      <dc:title>Matplotlib v3.5.2, https://matplotlib.org/</dc:title>
     </cc:Agent>
    </dc:creator>
   </cc:Work>
  </rdf:RDF>
 </metadata>
 <defs>
  <style type="text/css">*{stroke-linejoin: round; stroke-linecap: butt}</style>
 </defs>
 <g id="figure_1">
  <g id="patch_1">
   <path d="M 0 288 
L 108 288 
L 108 0 
L 0 0 
z
" style="fill: #ffffff"/>
  </g>
  <g id="axes_1">
   <g id="patch_2">
    <path d="M 13.5 256.32 
L 97.2 256.32 
L 97.2 34.56 
L 13.5 34.56 
z
" style="fill: #ffffff"/>
   </g>
   <g id="matplotlib.axis_1">
    <g id="ytick_1">
     <g id="line2d_1">
      <defs>
       <path id="mcfd4488e86" d="M 0 0 
L -3.5 0 
" style="stroke: #000000; stroke-width: 0.8"/>
      </defs>
      <g>
       <use xlink:href="#mcfd4488e86" x="13.5" y="200.88" style="stroke: #000000; stroke-width: 0.8"/>
      </g>
     </g>
    </g>
    <g id="ytick_2">
     <g id="line2d_2">
      <g>
       <use xlink:href="#mcfd4488e86" x="13.5" y="90" style="stroke: #000000; stroke-width: 0.8"/>
      </g>
     </g>
    </g>
   </g>
   <g id="line2d_3">
    <path d="M 17.413973 256.32 
L 17.443326 254.08 
L 17.47973 251.84 
L 17.524652 249.6 
L 17.579801 247.36 
L 17.647161 245.12 
L 17.729015 242.88 
L 17.827969 240.64 
L 17.946979 238.4 
L 18.089367 236.16 
L 18.258838 233.92 
L 18.459486 231.68 
L 18.695797 229.44 
L 18.972635 227.2 
L 19.295223 224.96 
L 19.669106 222.72 
L 20.100098 220.48 
L 20.594217 218.24 
L 21.157602 216 
L 21.796403 213.76 
L 22.516664 211.52 
L 23.324185 209.28 
L 24.22436 207.04 
L 25.222012 204.8 
L 26.321208 202.56 
L 27.525069 200.32 
L 28.835581 198.08 
L 30.253398 195.84 
L 31.777662 193.6 
L 33.405833 191.36 
L 35.133545 189.12 
L 36.954481 186.88 
L 38.860292 184.64 
L 40.840555 182.4 
L 42.882769 180.16 
L 44.972415 177.92 
L 47.093061 175.68 
L 49.226525 173.44 
L 51.35309 171.2 
L 53.451781 168.96 
L 55.500681 166.72 
L 57.477296 164.48 
L 59.358951 162.24 
L 61.123219 160 
L 62.748358 157.76 
L 64.213752 155.52 
L 65.500348 153.28 
L 66.591063 151.04 
L 67.471168 148.8 
L 68.128608 146.56 
L 68.554289 144.32 
L 68.742278 142.08 
L 68.689944 139.84 
L 68.39802 137.6 
L 67.870586 135.36 
L 67.114972 133.12 
L 66.141589 130.88 
L 64.963693 128.64 
L 63.597081 126.4 
L 62.059742 124.16 
L 60.371461 121.92 
L 58.553398 119.68 
L 56.627647 117.44 
L 54.616797 115.2 
L 52.543494 112.96 
L 50.43003 110.72 
L 48.297953 108.48 
L 46.167727 106.24 
L 44.058433 104 
L 41.987513 101.76 
L 39.970585 99.52 
L 38.0213 97.28 
L 36.151258 95.04 
L 34.369977 92.8 
L 32.684914 90.56 
L 31.101525 88.32 
L 29.623365 86.08 
L 28.252222 83.84 
L 26.988274 81.6 
L 25.830266 79.36 
L 24.775693 77.12 
L 23.821 74.88 
L 22.961768 72.64 
L 22.192902 70.4 
L 21.508813 68.16 
L 20.903577 65.92 
L 20.371086 63.68 
L 19.905181 61.44 
L 19.499766 59.2 
L 19.148901 56.96 
L 18.846881 54.72 
L 18.588297 52.48 
L 18.368078 50.24 
L 18.181523 48 
L 18.024316 45.76 
L 17.892531 43.52 
L 17.782634 41.28 
L 17.691462 39.04 
L 17.616214 36.8 
L 17.554429 34.56 
" clip-path="url(#peeebef84a0)" style="fill: none; stroke: #1e90ff; stroke-width: 1.5; stroke-linecap: square"/>
   </g>
   <g id="patch_3">
    <path d="M 13.5 256.32 
L 13.5 34.56 
" style="fill: none; stroke: #000000; stroke-width: 0.8; stroke-linejoin: miter; stroke-linecap: square"/>
   </g>
   <g id="line2d_4">
    <path d="M 19.039423 256.32 
L 19.583264 254.08 
L 20.267203 251.84 
L 21.117318 249.6 
L 22.161559 247.36 
L 23.428989 245.12 
L 24.948759 242.88 
L 26.748804 240.64 
L 28.854275 238.4 
L 31.28575 236.16 
L 34.057302 233.92 
L 37.174498 231.68 
L 40.632478 229.44 
L 44.414236 227.2 
L 48.489258 224.96 
L 52.812675 222.72 
L 57.325065 220.48 
L 61.953011 218.24 
L 66.610482 216 
L 71.201072 213.76 
L 75.621013 211.52 
L 79.762897 209.28 
L 83.5199 207.04 
L 86.790298 204.8 
L 89.482024 202.56 
L 91.516953 200.32 
L 92.834671 198.08 
L 93.395455 195.84 
L 93.182255 193.6 
L 92.201564 191.36 
L 90.483082 189.12 
L 88.078228 186.88 
L 85.057577 184.64 
L 81.507432 182.4 
L 77.525724 180.16 
L 73.217549 177.92 
L 68.6906 175.68 
L 64.050776 173.44 
L 59.398215 171.2 
L 54.823944 168.96 
L 50.407276 166.72 
L 46.21405 164.48 
L 42.295701 162.24 
L 38.689135 160 
L 35.417295 157.76 
L 32.490312 155.52 
L 29.90708 153.28 
L 27.657111 151.04 
L 25.722507 148.8 
L 24.079943 146.56 
L 22.702528 144.32 
L 21.561481 142.08 
L 20.627555 139.84 
L 19.87219 137.6 
L 19.26839 135.36 
L 18.79133 133.12 
L 18.418733 130.88 
L 18.131034 128.64 
L 17.9114 126.4 
L 17.745609 124.16 
L 17.621858 121.92 
L 17.53051 119.68 
L 17.463827 117.44 
L 17.415682 115.2 
L 17.381302 112.96 
L 17.35702 110.72 
L 17.340055 108.48 
L 17.328331 106.24 
L 17.320316 104 
L 17.314896 101.76 
L 17.311269 99.52 
L 17.308869 97.28 
L 17.307298 95.04 
L 17.30628 92.8 
L 17.305627 90.56 
L 17.305213 88.32 
L 17.304953 86.08 
L 17.304792 83.84 
L 17.304693 81.6 
L 17.304633 79.36 
L 17.304597 77.12 
L 17.304575 74.88 
L 17.304563 72.64 
L 17.304555 70.4 
L 17.304551 68.16 
L 17.304549 65.92 
L 17.304547 63.68 
L 17.304546 61.44 
L 17.304546 59.2 
L 17.304546 56.96 
L 17.304546 54.72 
L 17.304546 52.48 
L 17.304545 50.24 
L 17.304545 48 
L 17.304545 45.76 
L 17.304545 43.52 
L 17.304545 41.28 
L 17.304545 39.04 
L 17.304545 36.8 
L 17.304545 34.56 
" clip-path="url(#peeebef84a0)" style="fill: none; stroke: #808080; stroke-width: 1.5; stroke-linecap: square"/>
   </g>
  </g>
 </g>
 <defs>
  <clipPath id="peeebef84a0">
   <rect x="13.5" y="34.56" width="83.7" height="221.76"/>
  </clipPath>
 </defs>
</svg>
