<?xml version="1.0" encoding="utf-8" standalone="no"?>
<!DOCTYPE svg PUBLIC "-//W3C//DTD SVG 1.1//EN"
  "http://www.w3.org/Graphics/SVG/1.1/DTD/svg11.dtd">
<svg xmlns:xlink="http://www.w3.org/1999/xlink" width="288pt" height="180pt" viewBox="0 0 288 180" xmlns="http://www.w3.org/2000/svg" version="1.1">
 <metadata>
  <rdf:RDF xmlns:dc="http://purl.org/dc/elements/1.1/" xmlns:cc="http://creativecommons.org/ns#" xmlns:rdf="http://www.w3.org/1999/02/22-rdf-syntax-ns#">
   <cc:Work>
    <dc:type rdf:resource="http://purl.org/dc/dcmitype/StillImage"/>
    <dc:date>2022-09-21T15:28:53.338285</dc:date>
    <dc:format>image/svg+xml</dc:format>
    <dc:creator>
     <cc:Agent>
      <dc:title>Matplotlib v3.5.2, https://matplotlib.org/</dc:title>
     </cc:Agent>
    </dc:creator>
   </cc:Work>
  </rdf:RDF>
 </metadata>
 <defs>
  <style type="text/css">*{stroke-linejoin: round; stroke-linecap: butt}</style>
 </defs>
 <g id="figure_1">
  <g id="patch_1">
   <path d="M 0 180 
L 288 180 
L 288 0 
L 0 0 
z
" style="fill: #ffffff"/>
  </g>
  <g id="axes_1">
   <g id="patch_2">
    <path d="M 36 84.6 
L 259.2 84.6 
L 259.2 21.6 
L 36 21.6 
z
" style="fill: #ffffff"/>
   </g>
   <g id="PathCollection_1">
    <defs>
     <path id="ma5bfc0875a" d="M 0 -3 
L -0.673542 -0.927051 
L -2.85317 -0.927051 
L -1.089814 0.354102 
L -1.763356 2.427051 
L -0 1.145898 
L 1.763356 2.427051 
L 1.089814 0.354102 
L 2.85317 -0.927051 
L 0.673542 -0.927051 
z
" style="stroke: #029e73"/>
    </defs>
    <g clip-path="url(#pfd14a70519)">
     <use xlink:href="#ma5bfc0875a" x="146.575207" y="26.212931" style="fill: #029e73; stroke: #029e73"/>
    </g>
   </g>
   <g id="PathCollection_2">
    <defs>
     <path id="m78f47d5b4c" d="M 0 3 
C 0.795609 3 1.55874 2.683901 2.12132 2.12132 
C 2.683901 1.55874 3 0.795609 3 0 
C 3 -0.795609 2.683901 -1.55874 2.12132 -2.12132 
C 1.55874 -2.683901 0.795609 -3 0 -3 
C -0.795609 -3 -1.55874 -2.683901 -2.12132 -2.12132 
C -2.683901 -1.55874 -3 -0.795609 -3 0 
C -3 0.795609 -2.683901 1.55874 -2.12132 2.12132 
C -1.55874 2.683901 -0.795609 3 0 3 
z
" style="stroke: #000000"/>
    </defs>
    <g clip-path="url(#pfd14a70519)">
     <use xlink:href="#m78f47d5b4c" x="154.773554" y="24.463636" style="stroke: #000000"/>
    </g>
   </g>
   <g id="matplotlib.axis_1">
    <g id="xtick_1">
     <g id="line2d_1">
      <defs>
       <path id="me2e836dc7b" d="M 0 0 
L 0 3.5 
" style="stroke: #000000; stroke-width: 0.8"/>
      </defs>
      <g>
       <use xlink:href="#me2e836dc7b" x="147.6" y="84.6" style="stroke: #000000; stroke-width: 0.8"/>
      </g>
     </g>
     <g id="text_1">
      <!-- 0 -->
      <g transform="translate(145.931719 95.894687)scale(0.06 -0.06)">
       <defs>
        <path id="ArialMT-30" d="M 266 2259 
Q 266 3072 433 3567 
Q 600 4063 929 4331 
Q 1259 4600 1759 4600 
Q 2128 4600 2406 4451 
Q 2684 4303 2865 4023 
Q 3047 3744 3150 3342 
Q 3253 2941 3253 2259 
Q 3253 1453 3087 958 
Q 2922 463 2592 192 
Q 2263 -78 1759 -78 
Q 1097 -78 719 397 
Q 266 969 266 2259 
z
M 844 2259 
Q 844 1131 1108 757 
Q 1372 384 1759 384 
Q 2147 384 2411 759 
Q 2675 1134 2675 2259 
Q 2675 3391 2411 3762 
Q 2147 4134 1753 4134 
Q 1366 4134 1134 3806 
Q 844 3388 844 2259 
z
" transform="scale(0.015625)"/>
       </defs>
       <use xlink:href="#ArialMT-30"/>
      </g>
     </g>
    </g>
   </g>
   <g id="line2d_2">
    <path d="M 46.145455 81.733553 
L 48.195041 81.732004 
L 50.244628 81.729772 
L 52.294215 81.726581 
L 54.343802 81.722057 
L 56.393388 81.715698 
L 58.442975 81.706834 
L 60.492562 81.694585 
L 62.542149 81.6778 
L 64.591736 81.654996 
L 66.641322 81.62428 
L 68.690909 81.583262 
L 70.740496 81.528956 
L 72.790083 81.457682 
L 74.839669 81.364947 
L 76.889256 81.245344 
L 78.938843 81.092441 
L 80.98843 80.89869 
L 83.038017 80.655355 
L 85.087603 80.352477 
L 87.13719 79.978876 
L 89.186777 79.522214 
L 91.236364 78.969128 
L 93.28595 78.30544 
L 95.335537 77.516459 
L 97.385124 76.587379 
L 99.434711 75.503777 
L 101.484298 74.252198 
L 103.533884 72.820839 
L 105.583471 71.20028 
L 107.633058 69.384274 
L 109.682645 67.370534 
L 111.732231 65.161495 
L 113.781818 62.764992 
L 115.831405 60.194829 
L 117.880992 57.471164 
L 119.930579 54.620686 
L 121.980165 51.676538 
L 124.029752 48.677961 
L 126.079339 45.669639 
L 128.128926 42.70075 
L 130.178512 39.823748 
L 132.228099 37.092888 
L 134.277686 34.56258 
L 136.327273 32.285611 
L 138.37686 30.311329 
L 140.426446 28.683874 
L 142.476033 27.440537 
L 144.52562 26.610345 
L 146.575207 26.212931 
L 148.624793 26.257764 
L 150.67438 26.743775 
L 152.723967 27.659394 
L 154.773554 28.983016 
L 156.82314 30.683842 
L 158.872727 32.723072 
L 160.922314 35.055377 
L 162.971901 37.630567 
L 165.021488 40.395381 
L 167.071074 43.295301 
L 169.120661 46.276306 
L 171.170248 49.286495 
L 173.219835 52.277508 
L 175.269421 55.205693 
L 177.319008 58.033001 
L 179.368595 60.727573 
L 181.418182 63.264043 
L 183.467769 65.623559 
L 185.517355 67.793562 
L 187.566942 69.767359 
L 189.616529 71.543526 
L 191.666116 73.125217 
L 193.715702 74.519381 
L 195.765289 75.735984 
L 197.814876 76.78722 
L 199.864463 77.686792 
L 201.91405 78.449245 
L 203.963636 79.089399 
L 206.013223 79.62187 
L 208.06281 80.060692 
L 210.112397 80.419036 
L 212.161983 80.709013 
L 214.21157 80.94156 
L 216.261157 81.126388 
L 218.310744 81.271987 
L 220.360331 81.385673 
L 222.409917 81.473664 
L 224.459504 81.541174 
L 226.509091 81.59252 
L 228.558678 81.631236 
L 230.608264 81.660177 
L 232.657851 81.681625 
L 234.707438 81.697385 
L 236.757025 81.708867 
L 238.806612 81.717161 
L 240.856198 81.723101 
L 242.905785 81.72732 
L 244.955372 81.73029 
L 247.004959 81.732365 
L 249.054545 81.733801 
" clip-path="url(#pfd14a70519)" style="fill: none; stroke: #029e73; stroke-width: 1.5; stroke-linecap: square"/>
   </g>
   <g id="line2d_3">
    <path d="M 147.392814 84.6 
L 147.392814 21.6 
" clip-path="url(#pfd14a70519)" style="fill: none; stroke-dasharray: 1.5,2.475; stroke-dashoffset: 0; stroke: #029e73; stroke-width: 1.5"/>
   </g>
   <g id="line2d_4">
    <path d="M 46.145455 81.736364 
L 48.195041 81.736125 
L 50.244628 81.735762 
L 52.294215 81.735214 
L 54.343802 81.734395 
L 56.393388 81.733182 
L 58.442975 81.731401 
L 60.492562 81.728808 
L 62.542149 81.725069 
L 64.591736 81.719723 
L 66.641322 81.712151 
L 68.690909 81.701519 
L 70.740496 81.686727 
L 72.790083 81.666332 
L 74.839669 81.638469 
L 76.889256 81.600749 
L 78.938843 81.55015 
L 80.98843 81.482898 
L 83.038017 81.394336 
L 85.087603 81.27879 
L 87.13719 81.129442 
L 89.186777 80.938209 
L 91.236364 80.695647 
L 93.28595 80.390896 
L 95.335537 80.011663 
L 97.385124 79.544285 
L 99.434711 78.973862 
L 101.484298 78.284493 
L 103.533884 77.459622 
L 105.583471 76.482502 
L 107.633058 75.336774 
L 109.682645 74.007179 
L 111.732231 72.480354 
L 113.781818 70.745733 
L 115.831405 68.796481 
L 117.880992 66.630447 
L 119.930579 64.251069 
L 121.980165 61.668181 
L 124.029752 58.898661 
L 126.079339 55.966858 
L 128.128926 52.904738 
L 130.178512 49.751717 
L 132.228099 46.554132 
L 134.277686 43.364345 
L 136.327273 40.239493 
L 138.37686 37.2399 
L 140.426446 34.427216 
L 142.476033 31.862363 
L 144.52562 29.603357 
L 146.575207 27.703147 
L 148.624793 26.207556 
L 150.67438 25.153442 
L 152.723967 24.567196 
L 154.773554 24.463636 
L 156.82314 24.845393 
L 158.872727 25.702791 
L 160.922314 27.014261 
L 162.971901 28.747242 
L 165.021488 30.859522 
L 167.071074 33.300946 
L 169.120661 36.015395 
L 171.170248 38.942917 
L 173.219835 42.021913 
L 175.269421 45.19125 
L 177.319008 48.392226 
L 179.368595 51.570269 
L 181.418182 54.676345 
L 183.467769 57.668006 
L 185.517355 60.51007 
L 187.566942 63.174945 
L 189.616529 65.642608 
L 191.666116 67.900292 
L 193.715702 69.941925 
L 195.765289 71.767384 
L 197.814876 73.381623 
L 199.864463 74.793737 
L 201.91405 76.016009 
L 203.963636 77.062995 
L 206.013223 77.950677 
L 208.06281 78.695716 
L 210.112397 79.314814 
L 212.161983 79.824198 
L 214.21157 80.23923 
L 216.261157 80.574122 
L 218.310744 80.841762 
L 220.360331 81.053623 
L 222.409917 81.219747 
L 224.459504 81.348786 
L 226.509091 81.448085 
L 228.558678 81.523789 
L 230.608264 81.580971 
L 232.657851 81.623767 
L 234.707438 81.655503 
L 236.757025 81.678822 
L 238.806612 81.695802 
L 240.856198 81.708053 
L 242.905785 81.716813 
L 244.955372 81.72302 
L 247.004959 81.727379 
L 249.054545 81.730413 
" clip-path="url(#pfd14a70519)" style="fill: none; stroke: #000000; stroke-width: 1.5; stroke-linecap: square"/>
   </g>
   <g id="line2d_5">
    <path d="M 154.185275 84.6 
L 154.185275 21.6 
" clip-path="url(#pfd14a70519)" style="fill: none; stroke-dasharray: 5.55,2.4; stroke-dashoffset: 0; stroke: #000000; stroke-width: 1.5"/>
   </g>
   <g id="patch_3">
    <path d="M 36 84.6 
L 259.2 84.6 
" style="fill: none; stroke: #000000; stroke-width: 0.8; stroke-linejoin: miter; stroke-linecap: square"/>
   </g>
  </g>
  <g id="axes_2">
   <g id="patch_4">
    <path d="M 36 160.2 
L 259.2 160.2 
L 259.2 97.2 
L 36 97.2 
z
" style="fill: #ffffff"/>
   </g>
   <g id="PathCollection_3">
    <defs>
     <path id="mc67fc0528b" d="M 0 -3 
L -0.673542 -0.927051 
L -2.85317 -0.927051 
L -1.089814 0.354102 
L -1.763356 2.427051 
L -0 1.145898 
L 1.763356 2.427051 
L 1.089814 0.354102 
L 2.85317 -0.927051 
L 0.673542 -0.927051 
z
" style="stroke: #d99900"/>
    </defs>
    <g clip-path="url(#p48c03510dc)">
     <use xlink:href="#mc67fc0528b" x="148.624793" y="100.967048" style="fill: #d99900; stroke: #d99900"/>
    </g>
   </g>
   <g id="PathCollection_4">
    <g clip-path="url(#p48c03510dc)">
     <use xlink:href="#m78f47d5b4c" x="142.476033" y="100.063636" style="stroke: #000000"/>
    </g>
   </g>
   <g id="matplotlib.axis_2">
    <g id="xtick_2">
     <g id="line2d_6">
      <g>
       <use xlink:href="#me2e836dc7b" x="147.6" y="160.2" style="stroke: #000000; stroke-width: 0.8"/>
      </g>
     </g>
     <g id="text_2">
      <!-- 0 -->
      <g transform="translate(145.931719 171.494687)scale(0.06 -0.06)">
       <use xlink:href="#ArialMT-30"/>
      </g>
     </g>
    </g>
   </g>
   <g id="line2d_7">
    <path d="M 148.458786 160.2 
L 148.458786 97.2 
" clip-path="url(#p48c03510dc)" style="fill: none; stroke-dasharray: 1.5,2.475; stroke-dashoffset: 0; stroke: #d99900; stroke-width: 1.5"/>
   </g>
   <g id="line2d_8">
    <path d="M 46.145455 157.335102 
L 48.195041 157.334261 
L 50.244628 157.33302 
L 52.294215 157.331205 
L 54.343802 157.328572 
L 56.393388 157.324786 
L 58.442975 157.319392 
L 60.492562 157.311774 
L 62.542149 157.301111 
L 64.591736 157.286318 
L 66.641322 157.265979 
L 68.690909 157.238264 
L 70.740496 157.200838 
L 72.790083 157.150755 
L 74.839669 157.084339 
L 76.889256 156.997065 
L 78.938843 156.883432 
L 80.98843 156.736835 
L 83.038017 156.549458 
L 85.087603 156.312182 
L 87.13719 156.014526 
L 89.186777 155.644642 
L 91.236364 155.189364 
L 93.28595 154.634342 
L 95.335537 153.964262 
L 97.385124 153.163169 
L 99.434711 152.214911 
L 101.484298 151.103683 
L 103.533884 149.814698 
L 105.583471 148.334946 
L 107.633058 146.654038 
L 109.682645 144.765102 
L 111.732231 142.665688 
L 113.781818 140.35863 
L 115.831405 137.852829 
L 117.880992 135.163886 
L 119.930579 132.314525 
L 121.980165 129.334771 
L 124.029752 126.261815 
L 126.079339 123.13956 
L 128.128926 120.01781 
L 130.178512 116.951121 
L 132.228099 113.997329 
L 134.277686 111.215822 
L 136.327273 108.665595 
L 138.37686 106.403199 
L 140.426446 104.480671 
L 142.476033 102.94355 
L 144.52562 101.829083 
L 146.575207 101.164734 
L 148.624793 100.967048 
L 150.67438 101.240975 
L 152.723967 101.97966 
L 154.773554 103.16473 
L 156.82314 104.76705 
L 158.872727 106.747918 
L 160.922314 109.060616 
L 162.971901 111.652236 
L 165.021488 114.46569 
L 167.071074 117.441783 
L 169.120661 120.521251 
L 171.170248 123.646677 
L 173.219835 126.764183 
L 175.269421 129.824852 
L 177.319008 132.785824 
L 179.368595 135.611045 
L 181.418182 138.271672 
L 183.467769 140.746154 
L 185.517355 143.020012 
L 187.566942 145.085374 
L 189.616529 146.940318 
L 191.666116 148.58807 
L 193.715702 150.036136 
L 195.765289 151.295386 
L 197.814876 152.379175 
L 199.864463 153.302504 
L 201.91405 154.081277 
L 203.963636 154.731648 
L 206.013223 155.269495 
L 208.06281 155.709995 
L 210.112397 156.067318 
L 212.161983 156.354425 
L 214.21157 156.582943 
L 216.261157 156.76313 
L 218.310744 156.903889 
L 220.360331 157.012835 
L 222.409917 157.096383 
L 224.459504 157.15987 
L 226.509091 157.207674 
L 228.558678 157.243345 
L 230.608264 157.269721 
L 232.657851 157.289049 
L 234.707438 157.303087 
L 236.757025 157.313191 
L 238.806612 157.320398 
L 240.856198 157.325495 
L 242.905785 157.329066 
L 244.955372 157.331547 
L 247.004959 157.333255 
L 249.054545 157.334421 
" clip-path="url(#p48c03510dc)" style="fill: none; stroke: #d99900; stroke-width: 1.5; stroke-linecap: square"/>
   </g>
   <g id="line2d_9">
    <path d="M 46.145455 157.331938 
L 48.195041 157.329583 
L 50.244628 157.326165 
L 52.294215 157.321248 
L 54.343802 157.314242 
L 56.393388 157.304348 
L 58.442975 157.290507 
L 60.492562 157.27132 
L 62.542149 157.24497 
L 64.591736 157.209118 
L 66.641322 157.160793 
L 68.690909 157.096262 
L 70.740496 157.010901 
L 72.790083 156.899052 
L 74.839669 156.753885 
L 76.889256 156.567273 
L 78.938843 156.329683 
L 80.98843 156.030111 
L 83.038017 155.656063 
L 85.087603 155.1936 
L 87.13719 154.627478 
L 89.186777 153.941383 
L 91.236364 153.11828 
L 93.28595 152.14089 
L 95.335537 150.992298 
L 97.385124 149.656686 
L 99.434711 148.120172 
L 101.484298 146.371748 
L 103.533884 144.40427 
L 105.583471 142.215453 
L 107.633058 139.80883 
L 109.682645 137.1946 
L 111.732231 134.390307 
L 113.781818 131.421283 
L 115.831405 128.320801 
L 117.880992 125.129871 
L 119.930579 121.896677 
L 121.980165 118.675609 
L 124.029752 115.525917 
L 126.079339 112.510017 
L 128.128926 109.691518 
L 130.178512 107.133028 
L 132.228099 104.893877 
L 134.277686 103.027833 
L 136.327273 101.580969 
L 138.37686 100.589768 
L 140.426446 100.0796 
L 142.476033 100.063636 
L 144.52562 100.542292 
L 146.575207 101.503203 
L 148.624793 102.921756 
L 150.67438 104.762141 
L 152.723967 106.97885 
L 154.773554 109.518544 
L 156.82314 112.322187 
L 158.872727 115.327309 
L 160.922314 118.4703 
L 162.971901 121.688605 
L 165.021488 124.922714 
L 167.071074 128.117883 
L 169.120661 131.225495 
L 171.170248 134.204056 
L 173.219835 137.019786 
L 175.269421 139.646846 
L 177.319008 142.067199 
L 179.368595 144.270193 
L 181.418182 146.251891 
L 183.467769 148.01423 
L 185.517355 149.564074 
L 187.566942 150.912212 
L 189.616529 152.072367 
L 191.666116 153.060264 
L 193.715702 153.892768 
L 195.765289 154.587154 
L 197.814876 155.160489 
L 199.864463 155.629145 
L 201.91405 156.008444 
L 203.963636 156.312412 
L 206.013223 156.55364 
L 208.06281 156.743228 
L 210.112397 156.8908 
L 212.161983 157.004573 
L 214.21157 157.091455 
L 216.261157 157.157175 
L 218.310744 157.206422 
L 220.360331 157.242979 
L 222.409917 157.269863 
L 224.459504 157.289451 
L 226.509091 157.30359 
L 228.558678 157.313702 
L 230.608264 157.320868 
L 232.657851 157.325899 
L 234.707438 157.329399 
L 236.757025 157.331812 
L 238.806612 157.333461 
L 240.856198 157.334576 
L 242.905785 157.335325 
L 244.955372 157.335822 
L 247.004959 157.33615 
L 249.054545 157.336364 
" clip-path="url(#p48c03510dc)" style="fill: none; stroke: #000000; stroke-width: 1.5; stroke-linecap: square"/>
   </g>
   <g id="line2d_10">
    <path d="M 141.517128 160.2 
L 141.517128 97.2 
" clip-path="url(#p48c03510dc)" style="fill: none; stroke-dasharray: 5.55,2.4; stroke-dashoffset: 0; stroke: #000000; stroke-width: 1.5"/>
   </g>
   <g id="patch_5">
    <path d="M 36 160.2 
L 259.2 160.2 
" style="fill: none; stroke: #000000; stroke-width: 0.8; stroke-linejoin: miter; stroke-linecap: square"/>
   </g>
  </g>
 </g>
 <defs>
  <clipPath id="pfd14a70519">
   <rect x="36" y="21.6" width="223.2" height="63"/>
  </clipPath>
  <clipPath id="p48c03510dc">
   <rect x="36" y="97.2" width="223.2" height="63"/>
  </clipPath>
 </defs>
</svg>
