<?xml version="1.0" encoding="utf-8" standalone="no"?>
<!DOCTYPE svg PUBLIC "-//W3C//DTD SVG 1.1//EN"
  "http://www.w3.org/Graphics/SVG/1.1/DTD/svg11.dtd">
<svg xmlns:xlink="http://www.w3.org/1999/xlink" width="324pt" height="133.2pt" viewBox="0 0 324 133.2" xmlns="http://www.w3.org/2000/svg" version="1.1">
 <metadata>
  <rdf:RDF xmlns:dc="http://purl.org/dc/elements/1.1/" xmlns:cc="http://creativecommons.org/ns#" xmlns:rdf="http://www.w3.org/1999/02/22-rdf-syntax-ns#">
   <cc:Work>
    <dc:type rdf:resource="http://purl.org/dc/dcmitype/StillImage"/>
    <dc:date>2022-09-21T15:28:52.610243</dc:date>
    <dc:format>image/svg+xml</dc:format>
    <dc:creator>
     <cc:Agent>
      <dc:title>Matplotlib v3.5.2, https://matplotlib.org/</dc:title>
     </cc:Agent>
    </dc:creator>
   </cc:Work>
  </rdf:RDF>
 </metadata>
 <defs>
  <style type="text/css">*{stroke-linejoin: round; stroke-linecap: butt}</style>
 </defs>
 <g id="figure_1">
  <g id="patch_1">
   <path d="M 0 133.2 
L 324 133.2 
L 324 0 
L 0 0 
z
" style="fill: #ffffff"/>
  </g>
  <g id="axes_1">
   <g id="patch_2">
    <path d="M 0.324 133.0668 
L 70.688348 133.0668 
L 70.688348 0 
L 0.324 0 
z
" style="fill: #ffffff"/>
   </g>
   <g id="matplotlib.axis_1">
    <g id="ytick_1">
     <g id="line2d_1">
      <defs>
       <path id="mbd0915de6a" d="M 0 0 
L -3.5 0 
" style="stroke: #000000; stroke-width: 0.8"/>
      </defs>
      <g>
       <use xlink:href="#mbd0915de6a" x="0.324" y="99.8001" style="stroke: #000000; stroke-width: 0.8"/>
      </g>
     </g>
    </g>
    <g id="ytick_2">
     <g id="line2d_2">
      <g>
       <use xlink:href="#mbd0915de6a" x="0.324" y="33.2667" style="stroke: #000000; stroke-width: 0.8"/>
      </g>
     </g>
    </g>
   </g>
   <g id="line2d_3">
    <path d="M 3.600935 133.0668 
L 3.620795 131.722691 
L 3.645154 130.378582 
L 3.674893 129.034473 
L 3.711032 127.690364 
L 3.754744 126.346255 
L 3.807373 125.002145 
L 3.87044 123.658036 
L 3.945661 122.313927 
L 4.034956 120.969818 
L 4.140458 119.625709 
L 4.264515 118.2816 
L 4.409696 116.937491 
L 4.578781 115.593382 
L 4.774755 114.249273 
L 5.000791 112.905164 
L 5.260225 111.561055 
L 5.556527 110.216945 
L 5.893254 108.872836 
L 6.274009 107.528727 
L 6.702375 106.184618 
L 7.18185 104.840509 
L 7.715768 103.4964 
L 8.307216 102.152291 
L 8.958942 100.808182 
L 9.673252 99.464073 
L 10.451918 98.119964 
L 11.296066 96.775855 
L 12.206081 95.431745 
L 13.181507 94.087636 
L 14.220959 92.743527 
L 15.32204 91.399418 
L 16.481276 90.055309 
L 17.694073 88.7112 
L 18.954678 87.367091 
L 20.256182 86.022982 
L 21.590536 84.678873 
L 22.948596 83.334764 
L 24.320197 81.990655 
L 25.694256 80.646545 
L 27.058903 79.302436 
L 28.401633 77.958327 
L 29.709488 76.614218 
L 30.969255 75.270109 
L 32.167683 73.926 
L 33.291714 72.581891 
L 34.328711 71.237782 
L 35.266698 69.893673 
L 36.094588 68.549564 
L 36.802398 67.205455 
L 37.381454 65.861345 
L 37.824563 64.517236 
L 38.126166 63.173127 
L 38.282449 61.829018 
L 38.291429 60.484909 
L 38.152992 59.1408 
L 37.868895 57.796691 
L 37.442733 56.452582 
L 36.879858 55.108473 
L 36.187272 53.764364 
L 35.373477 52.420255 
L 34.448308 51.076145 
L 33.422729 49.732036 
L 32.308619 48.387927 
L 31.118547 47.043818 
L 29.865534 45.699709 
L 28.56282 44.3556 
L 27.223632 43.011491 
L 25.860972 41.667382 
L 24.487409 40.323273 
L 23.1149 38.979164 
L 21.754631 37.635055 
L 20.416885 36.290945 
L 19.110933 34.946836 
L 17.844961 33.602727 
L 16.62602 32.258618 
L 15.460001 30.914509 
L 14.35164 29.5704 
L 13.304544 28.226291 
L 12.321237 26.882182 
L 11.403224 25.538073 
L 10.55107 24.193964 
L 9.764487 22.849855 
L 9.042432 21.505745 
L 8.383209 20.161636 
L 7.784569 18.817527 
L 7.243812 17.473418 
L 6.75789 16.129309 
L 6.323493 14.7852 
L 5.937138 13.441091 
L 5.595248 12.096982 
L 5.294222 10.752873 
L 5.030491 9.408764 
L 4.800575 8.064655 
L 4.601118 6.720545 
L 4.428926 5.376436 
L 4.280991 4.032327 
L 4.154505 2.688218 
L 4.046876 1.344109 
L 3.955728 0 
" clip-path="url(#p864758d3c9)" style="fill: none; stroke: #1e90ff; stroke-width: 1.5; stroke-linecap: square"/>
   </g>
   <g id="patch_3">
    <path d="M 0.324 133.0668 
L 0.324 0 
" style="fill: none; stroke: #000000; stroke-width: 0.8; stroke-linejoin: miter; stroke-linecap: square"/>
   </g>
   <g id="line2d_4">
    <path d="M 3.52238 133.0668 
L 3.52238 131.722691 
L 3.52238 130.378582 
L 3.522381 129.034473 
L 3.522381 127.690364 
L 3.522383 126.346255 
L 3.522386 125.002145 
L 3.522391 123.658036 
L 3.522399 122.313927 
L 3.522414 120.969818 
L 3.522438 119.625709 
L 3.522479 118.2816 
L 3.522545 116.937491 
L 3.522654 115.593382 
L 3.522829 114.249273 
L 3.523109 112.905164 
L 3.52355 111.561055 
L 3.524239 110.216945 
L 3.525304 108.872836 
L 3.526931 107.528727 
L 3.529393 106.184618 
L 3.533078 104.840509 
L 3.538531 103.4964 
L 3.546517 102.152291 
L 3.558085 100.808182 
L 3.574661 99.464073 
L 3.598155 98.119964 
L 3.631092 96.775855 
L 3.676762 95.431745 
L 3.739393 94.087636 
L 3.824336 92.743527 
L 3.938263 91.399418 
L 4.089358 90.055309 
L 4.287502 88.7112 
L 4.544411 87.367091 
L 4.873725 86.022982 
L 5.291011 84.678873 
L 5.813654 83.334764 
L 6.460609 81.990655 
L 7.251988 80.646545 
L 8.208459 79.302436 
L 9.350452 77.958327 
L 10.697168 76.614218 
L 12.265412 75.270109 
L 14.068288 73.926 
L 16.113802 72.581891 
L 18.40346 71.237782 
L 20.930945 69.893673 
L 23.680981 68.549564 
L 26.628482 67.205455 
L 29.738103 65.861345 
L 32.964283 64.517236 
L 36.251837 63.173127 
L 39.537145 61.829018 
L 42.749936 60.484909 
L 45.815604 59.1408 
L 48.657979 57.796691 
L 51.202408 56.452582 
L 53.378982 55.108473 
L 55.125709 53.764364 
L 56.391446 52.420255 
L 57.138383 51.076145 
L 57.343918 49.732036 
L 57.001795 48.387927 
L 56.12242 47.043818 
L 54.732333 45.699709 
L 52.872879 44.3556 
L 50.598168 43.011491 
L 47.972458 41.667382 
L 45.067147 40.323273 
L 41.957568 38.979164 
L 38.719778 37.635055 
L 35.427544 36.290945 
L 32.149674 34.946836 
L 28.94782 33.602727 
L 25.87485 32.258618 
L 22.973807 30.914509 
L 20.277451 29.5704 
L 17.808357 28.226291 
L 15.57947 26.882182 
L 13.595034 25.538073 
L 11.85179 24.193964 
L 10.340324 22.849855 
L 9.046479 21.505745 
L 7.952734 20.161636 
L 7.039476 18.817527 
L 6.286131 17.473418 
L 5.672103 16.129309 
L 5.17752 14.7852 
L 4.78379 13.441091 
L 4.473962 12.096982 
L 4.232947 10.752873 
L 4.04759 9.408764 
L 3.906644 8.064655 
L 3.800668 6.720545 
L 3.721874 5.376436 
L 3.663937 4.032327 
L 3.621807 2.688218 
L 3.591506 1.344109 
L 3.569952 0 
" clip-path="url(#p864758d3c9)" style="fill: none; stroke: #808080; stroke-width: 1.5; stroke-linecap: square"/>
   </g>
   <g id="line2d_5">
    <path d="M 3.522379 133.0668 
L 3.522379 131.722691 
L 3.522379 130.378582 
L 3.522379 129.034473 
L 3.522379 127.690364 
L 3.522379 126.346255 
L 3.52238 125.002145 
L 3.52238 123.658036 
L 3.52238 122.313927 
L 3.52238 120.969818 
L 3.522381 119.625709 
L 3.522382 118.2816 
L 3.522385 116.937491 
L 3.52239 115.593382 
L 3.522401 114.249273 
L 3.52242 112.905164 
L 3.522457 111.561055 
L 3.522523 110.216945 
L 3.522643 108.872836 
L 3.522855 107.528727 
L 3.523226 106.184618 
L 3.523865 104.840509 
L 3.52495 103.4964 
L 3.526762 102.152291 
L 3.529746 100.808182 
L 3.534583 99.464073 
L 3.542306 98.119964 
L 3.55445 96.775855 
L 3.573254 95.431745 
L 3.601927 94.087636 
L 3.644974 92.743527 
L 3.708606 91.399418 
L 3.801207 90.055309 
L 3.933864 88.7112 
L 4.120923 87.367091 
L 4.380527 86.022982 
L 4.735076 84.678873 
L 5.211522 83.334764 
L 5.841399 81.990655 
L 6.660479 80.646545 
L 7.707934 79.302436 
L 9.024921 77.958327 
L 10.652513 76.614218 
L 12.628975 75.270109 
L 14.98644 73.926 
L 17.74714 72.581891 
L 20.919424 71.237782 
L 24.493906 69.893673 
L 28.440119 68.549564 
L 32.704126 67.205455 
L 37.207489 65.861345 
L 41.847955 64.517236 
L 46.502087 63.173127 
L 51.029889 61.829018 
L 55.281288 60.484909 
L 59.104102 59.1408 
L 62.352933 57.796691 
L 64.898284 56.452582 
L 66.635103 55.108473 
L 67.489968 53.764364 
L 67.426238 52.420255 
L 66.446654 51.076145 
L 64.59315 49.732036 
L 61.943869 48.387927 
L 58.607701 47.043818 
L 54.716866 45.699709 
L 50.418244 44.3556 
L 45.864239 43.011491 
L 41.203982 41.667382 
L 36.575528 40.323273 
L 32.099624 38.979164 
L 27.875348 37.635055 
L 23.977757 36.290945 
L 20.457455 34.946836 
L 17.341831 33.602727 
L 14.637612 32.258618 
L 12.334294 30.914509 
L 10.408048 29.5704 
L 8.825676 28.226291 
L 7.548343 26.882182 
L 6.534815 25.538073 
L 5.744102 24.193964 
L 5.137429 22.849855 
L 4.679572 21.505745 
L 4.33962 20.161636 
L 4.091256 18.817527 
L 3.91269 17.473418 
L 3.786332 16.129309 
L 3.69832 14.7852 
L 3.637972 13.441091 
L 3.597234 12.096982 
L 3.570158 10.752873 
L 3.552438 9.408764 
L 3.541019 8.064655 
L 3.533772 6.720545 
L 3.529243 5.376436 
L 3.526455 4.032327 
L 3.524765 2.688218 
L 3.523755 1.344109 
L 3.523162 0 
" clip-path="url(#p864758d3c9)" style="fill: none; stroke: #cc78bc; stroke-width: 1.5; stroke-linecap: square"/>
   </g>
   <g id="PathCollection_1">
    <defs>
     <path id="mb05045a72b" d="M 0 -3.535534 
L -0.793777 -1.09254 
L -3.362493 -1.09254 
L -1.284358 0.417313 
L -2.078135 2.860307 
L -0 1.350454 
L 2.078135 2.860307 
L 1.284358 0.417313 
L 3.362493 -1.09254 
L 0.793777 -1.09254 
z
" style="stroke: #029e73"/>
    </defs>
    <g clip-path="url(#p864758d3c9)">
     <use xlink:href="#mb05045a72b" x="67.489968" y="53.764364" style="fill: #029e73; stroke: #029e73"/>
    </g>
   </g>
  </g>
  <g id="axes_2">
   <g id="patch_4">
    <path d="M 84.761217 133.0668 
L 155.125565 133.0668 
L 155.125565 0 
L 84.761217 0 
z
" style="fill: #ffffff"/>
   </g>
   <g id="matplotlib.axis_2">
    <g id="ytick_3">
     <g id="line2d_6">
      <g>
       <use xlink:href="#mbd0915de6a" x="84.761217" y="99.8001" style="stroke: #000000; stroke-width: 0.8"/>
      </g>
     </g>
    </g>
    <g id="ytick_4">
     <g id="line2d_7">
      <g>
       <use xlink:href="#mbd0915de6a" x="84.761217" y="33.2667" style="stroke: #000000; stroke-width: 0.8"/>
      </g>
     </g>
    </g>
   </g>
   <g id="line2d_8">
    <path d="M 89.742473 133.0668 
L 90.000318 131.722691 
L 90.287884 130.378582 
L 90.607363 129.034473 
L 90.960921 127.690364 
L 91.350665 126.346255 
L 91.778602 125.002145 
L 92.246605 123.658036 
L 92.756363 122.313927 
L 93.309341 120.969818 
L 93.906731 119.625709 
L 94.549403 118.2816 
L 95.237862 116.937491 
L 95.972193 115.593382 
L 96.752027 114.249273 
L 97.576491 112.905164 
L 98.444175 111.561055 
L 99.353101 110.216945 
L 100.300698 108.872836 
L 101.283784 107.528727 
L 102.298562 106.184618 
L 103.340616 104.840509 
L 104.404929 103.4964 
L 105.485904 102.152291 
L 106.577399 100.808182 
L 107.672775 99.464073 
L 108.764952 98.119964 
L 109.846476 96.775855 
L 110.909602 95.431745 
L 111.946377 94.087636 
L 112.94874 92.743527 
L 113.90862 91.399418 
L 114.818044 90.055309 
L 115.669246 88.7112 
L 116.454775 87.367091 
L 117.167606 86.022982 
L 117.801243 84.678873 
L 118.349816 83.334764 
L 118.808173 81.990655 
L 119.17196 80.646545 
L 119.43769 79.302436 
L 119.602798 77.958327 
L 119.665684 76.614218 
L 119.625736 75.270109 
L 119.483342 73.926 
L 119.239885 72.581891 
L 118.897716 71.237782 
L 118.460122 69.893673 
L 117.931268 68.549564 
L 117.316134 67.205455 
L 116.620438 65.861345 
L 115.850545 64.517236 
L 115.013371 63.173127 
L 114.11628 61.829018 
L 113.166978 60.484909 
L 112.1734 59.1408 
L 111.143605 57.796691 
L 110.085666 56.452582 
L 109.007569 55.108473 
L 107.917113 53.764364 
L 106.821823 52.420255 
L 105.728869 51.076145 
L 104.644994 49.732036 
L 103.576457 48.387927 
L 102.528978 47.043818 
L 101.507708 45.699709 
L 100.517196 44.3556 
L 99.561379 43.011491 
L 98.643576 41.667382 
L 97.766494 40.323273 
L 96.93224 38.979164 
L 96.14235 37.635055 
L 95.397812 36.290945 
L 94.699105 34.946836 
L 94.046242 33.602727 
L 93.438807 32.258618 
L 92.876008 30.914509 
L 92.35672 29.5704 
L 91.879536 28.226291 
L 91.442811 26.882182 
L 91.044712 25.538073 
L 90.683256 24.193964 
L 90.356356 22.849855 
L 90.061856 21.505745 
L 89.797566 20.161636 
L 89.561295 18.817527 
L 89.350873 17.473418 
L 89.164178 16.129309 
L 88.999156 14.7852 
L 88.853833 13.441091 
L 88.726333 12.096982 
L 88.614881 10.752873 
L 88.517814 9.408764 
L 88.433585 8.064655 
L 88.360761 6.720545 
L 88.298025 5.376436 
L 88.244175 4.032327 
L 88.198118 2.688218 
L 88.158867 1.344109 
L 88.125536 0 
" clip-path="url(#pdd7ee13145)" style="fill: none; stroke: #1e90ff; stroke-width: 1.5; stroke-linecap: square"/>
   </g>
   <g id="patch_5">
    <path d="M 84.761217 133.0668 
L 84.761217 0 
" style="fill: none; stroke: #000000; stroke-width: 0.8; stroke-linejoin: miter; stroke-linecap: square"/>
   </g>
   <g id="line2d_9">
    <path d="M 88.008879 133.0668 
L 88.031208 131.722691 
L 88.062597 130.378582 
L 88.106241 129.034473 
L 88.16626 127.690364 
L 88.247886 126.346255 
L 88.357669 125.002145 
L 88.50368 123.658036 
L 88.695698 122.313927 
L 88.945373 120.969818 
L 89.266333 119.625709 
L 89.674212 118.2816 
L 90.186566 116.937491 
L 90.822659 115.593382 
L 91.603074 114.249273 
L 92.549148 112.905164 
L 93.682195 111.561055 
L 95.022532 110.216945 
L 96.58831 108.872836 
L 98.394194 107.528727 
L 100.449937 106.184618 
L 102.758915 104.840509 
L 105.316731 103.4964 
L 108.109975 102.152291 
L 111.115263 100.808182 
L 114.298654 99.464073 
L 117.61556 98.119964 
L 121.011215 96.775855 
L 124.421749 95.431745 
L 127.775883 94.087636 
L 130.997199 92.743527 
L 134.006907 91.399418 
L 136.726967 90.055309 
L 139.083416 88.7112 
L 141.009686 87.367091 
L 142.449723 86.022982 
L 143.360697 84.678873 
L 143.715114 83.334764 
L 143.502193 81.990655 
L 142.728416 80.646545 
L 141.417197 79.302436 
L 139.607704 77.958327 
L 137.35292 76.614218 
L 134.717061 75.270109 
L 131.772551 73.926 
L 128.596724 72.581891 
L 125.268487 71.237782 
L 121.865127 69.893673 
L 118.459442 68.549564 
L 115.117335 67.205455 
L 111.895974 65.861345 
L 108.842561 64.517236 
L 105.993708 63.173127 
L 103.375401 61.829018 
L 101.003469 60.484909 
L 98.884454 59.1408 
L 97.016795 57.796691 
L 95.392198 56.452582 
L 93.99709 55.108473 
L 92.814062 53.764364 
L 91.823222 52.420255 
L 91.003406 51.076145 
L 90.333204 49.732036 
L 89.791781 48.387927 
L 89.3595 47.043818 
L 89.018353 45.699709 
L 88.752213 44.3556 
L 88.546949 43.011491 
L 88.390424 41.667382 
L 88.272404 40.323273 
L 88.184409 38.979164 
L 88.119527 37.635055 
L 88.072216 36.290945 
L 88.038095 34.946836 
L 88.013757 33.602727 
L 87.996585 32.258618 
L 87.984601 30.914509 
L 87.976329 29.5704 
L 87.970679 28.226291 
L 87.966863 26.882182 
L 87.964312 25.538073 
L 87.962626 24.193964 
L 87.961523 22.849855 
L 87.960809 21.505745 
L 87.960352 20.161636 
L 87.960063 18.817527 
L 87.959881 17.473418 
L 87.959769 16.129309 
L 87.9597 14.7852 
L 87.959658 13.441091 
L 87.959632 12.096982 
L 87.959618 10.752873 
L 87.959609 9.408764 
L 87.959604 8.064655 
L 87.959601 6.720545 
L 87.959599 5.376436 
L 87.959598 4.032327 
L 87.959597 2.688218 
L 87.959597 1.344109 
L 87.959597 0 
" clip-path="url(#pdd7ee13145)" style="fill: none; stroke: #808080; stroke-width: 1.5; stroke-linecap: square"/>
   </g>
   <g id="line2d_10">
    <path d="M 87.962877 133.0668 
L 87.965053 131.722691 
L 87.96855 130.378582 
L 87.974093 129.034473 
L 87.982753 127.690364 
L 87.996094 126.346255 
L 88.016353 125.002145 
L 88.046677 123.658036 
L 88.091418 122.313927 
L 88.156481 120.969818 
L 88.249728 119.625709 
L 88.381427 118.2816 
L 88.564716 116.937491 
L 88.816048 115.593382 
L 89.155576 114.249273 
L 89.607394 112.905164 
L 90.19957 111.561055 
L 90.963882 110.216945 
L 91.935159 108.872836 
L 93.150168 107.528727 
L 94.645972 106.184618 
L 96.457768 104.840509 
L 98.616213 103.4964 
L 101.144359 102.152291 
L 104.054352 100.808182 
L 107.344139 99.464073 
L 110.994471 98.119964 
L 114.966528 96.775855 
L 119.200513 95.431745 
L 123.615495 94.087636 
L 128.110759 92.743527 
L 132.568749 91.399418 
L 136.859604 90.055309 
L 140.847091 88.7112 
L 144.395589 87.367091 
L 147.377655 86.022982 
L 149.681577 84.678873 
L 151.218311 83.334764 
L 151.927186 81.990655 
L 151.779878 80.646545 
L 150.78229 79.302436 
L 148.97416 77.958327 
L 146.426429 76.614218 
L 143.236632 75.270109 
L 139.522697 73.926 
L 135.415738 72.581891 
L 131.052417 71.237782 
L 126.567529 69.893673 
L 122.087316 68.549564 
L 117.723995 67.205455 
L 113.571747 65.861345 
L 109.704331 64.517236 
L 106.174265 63.173127 
L 103.013446 61.829018 
L 100.23492 60.484909 
L 97.835514 59.1408 
L 95.798965 57.796691 
L 94.099249 56.452582 
L 92.703825 55.108473 
L 91.57658 53.764364 
L 90.680334 52.420255 
L 89.978827 51.076145 
L 89.438174 49.732036 
L 89.027819 48.387927 
L 88.721041 47.043818 
L 88.495114 45.699709 
L 88.33119 44.3556 
L 88.214 43.011491 
L 88.131441 41.667382 
L 88.074124 40.323273 
L 88.034904 38.979164 
L 88.008454 37.635055 
L 87.99087 36.290945 
L 87.979348 34.946836 
L 87.971904 33.602727 
L 87.967163 32.258618 
L 87.964186 30.914509 
L 87.962344 29.5704 
L 87.961219 28.226291 
L 87.960542 26.882182 
L 87.96014 25.538073 
L 87.959905 24.193964 
L 87.959769 22.849855 
L 87.959692 21.505745 
L 87.959649 20.161636 
L 87.959625 18.817527 
L 87.959612 17.473418 
L 87.959605 16.129309 
L 87.959601 14.7852 
L 87.959599 13.441091 
L 87.959598 12.096982 
L 87.959597 10.752873 
L 87.959597 9.408764 
L 87.959597 8.064655 
L 87.959597 6.720545 
L 87.959597 5.376436 
L 87.959597 4.032327 
L 87.959597 2.688218 
L 87.959597 1.344109 
L 87.959597 0 
" clip-path="url(#pdd7ee13145)" style="fill: none; stroke: #cc78bc; stroke-width: 1.5; stroke-linecap: square"/>
   </g>
   <g id="PathCollection_2">
    <g clip-path="url(#pdd7ee13145)">
     <use xlink:href="#mb05045a72b" x="151.927186" y="81.990655" style="fill: #029e73; stroke: #029e73"/>
    </g>
   </g>
  </g>
  <g id="axes_3">
   <g id="patch_6">
    <path d="M 169.198435 133.0668 
L 239.562783 133.0668 
L 239.562783 0 
L 169.198435 0 
z
" style="fill: #ffffff"/>
   </g>
   <g id="matplotlib.axis_3">
    <g id="ytick_5">
     <g id="line2d_11">
      <g>
       <use xlink:href="#mbd0915de6a" x="169.198435" y="99.8001" style="stroke: #000000; stroke-width: 0.8"/>
      </g>
     </g>
    </g>
    <g id="ytick_6">
     <g id="line2d_12">
      <g>
       <use xlink:href="#mbd0915de6a" x="169.198435" y="33.2667" style="stroke: #000000; stroke-width: 0.8"/>
      </g>
     </g>
    </g>
   </g>
   <g id="line2d_13">
    <path d="M 172.475266 133.0668 
L 172.4951 131.722691 
L 172.519426 130.378582 
L 172.549125 129.034473 
L 172.585216 127.690364 
L 172.628871 126.346255 
L 172.681429 125.002145 
L 172.744412 123.658036 
L 172.819534 122.313927 
L 172.90871 120.969818 
L 173.014072 119.625709 
L 173.137965 118.2816 
L 173.282953 116.937491 
L 173.451814 115.593382 
L 173.647528 114.249273 
L 173.873264 112.905164 
L 174.132354 111.561055 
L 174.428262 110.216945 
L 174.764542 108.872836 
L 175.144792 107.528727 
L 175.572589 106.184618 
L 176.051428 104.840509 
L 176.584638 103.4964 
L 177.175301 102.152291 
L 177.826161 100.808182 
L 178.539524 99.464073 
L 179.317156 98.119964 
L 180.160184 96.775855 
L 181.068991 95.431745 
L 182.043123 94.087636 
L 183.081195 92.743527 
L 184.180815 91.399418 
L 185.338513 90.055309 
L 186.5497 88.7112 
L 187.808632 87.367091 
L 189.108409 86.022982 
L 190.440992 84.678873 
L 191.797249 83.334764 
L 193.16703 81.990655 
L 194.539266 80.646545 
L 195.902102 79.302436 
L 197.24305 77.958327 
L 198.549168 76.614218 
L 199.807263 75.270109 
L 201.004102 73.926 
L 202.126641 72.581891 
L 203.162261 71.237782 
L 204.099004 69.893673 
L 204.925794 68.549564 
L 205.632665 67.205455 
L 206.210952 65.861345 
L 206.653474 64.517236 
L 206.954676 63.173127 
L 207.110752 61.829018 
L 207.11972 60.484909 
L 206.981467 59.1408 
L 206.697747 57.796691 
L 206.27215 56.452582 
L 205.710023 55.108473 
L 205.018355 53.764364 
L 204.205641 52.420255 
L 203.2817 51.076145 
L 202.257481 49.732036 
L 201.14485 48.387927 
L 199.956358 47.043818 
L 198.705008 45.699709 
L 197.404022 44.3556 
L 196.066612 43.011491 
L 194.70576 41.667382 
L 193.33402 40.323273 
L 191.963332 38.979164 
L 190.604869 37.635055 
L 189.268898 36.290945 
L 187.964679 34.946836 
L 186.700388 33.602727 
L 185.483064 32.258618 
L 184.318593 30.914509 
L 183.211703 29.5704 
L 182.165996 28.226291 
L 181.183994 26.882182 
L 180.2672 25.538073 
L 179.416177 24.193964 
L 178.630638 22.849855 
L 177.909541 21.505745 
L 177.251193 20.161636 
L 176.653347 18.817527 
L 176.113308 17.473418 
L 175.628031 16.129309 
L 175.19421 14.7852 
L 174.808368 13.441091 
L 174.466932 12.096982 
L 174.166305 10.752873 
L 173.902925 9.408764 
L 173.673313 8.064655 
L 173.474121 6.720545 
L 173.302158 5.376436 
L 173.154419 4.032327 
L 173.028101 2.688218 
L 172.920615 1.344109 
L 172.829588 0 
" clip-path="url(#p138e44dde2)" style="fill: none; stroke: #1e90ff; stroke-width: 1.5; stroke-linecap: square"/>
   </g>
   <g id="patch_7">
    <path d="M 169.198435 133.0668 
L 169.198435 0 
" style="fill: none; stroke: #000000; stroke-width: 0.8; stroke-linejoin: miter; stroke-linecap: square"/>
   </g>
   <g id="line2d_14">
    <path d="M 172.444324 133.0668 
L 172.465849 131.722691 
L 172.49611 130.378582 
L 172.538184 129.034473 
L 172.596044 127.690364 
L 172.674734 126.346255 
L 172.780569 125.002145 
L 172.921328 123.658036 
L 173.106439 122.313927 
L 173.347134 120.969818 
L 173.65655 119.625709 
L 174.049759 118.2816 
L 174.543684 116.937491 
L 175.156898 115.593382 
L 175.909243 114.249273 
L 176.821289 112.905164 
L 177.913583 111.561055 
L 179.20571 110.216945 
L 180.715171 108.872836 
L 182.456101 107.528727 
L 184.437903 106.184618 
L 186.663832 104.840509 
L 189.129649 103.4964 
L 191.822427 102.152291 
L 194.71962 100.808182 
L 197.788511 99.464073 
L 200.986116 98.119964 
L 204.259636 96.775855 
L 207.547501 95.431745 
L 210.780993 94.087636 
L 213.886446 92.743527 
L 216.787901 91.399418 
L 219.410126 90.055309 
L 221.681819 88.7112 
L 223.538804 87.367091 
L 224.927047 86.022982 
L 225.805255 84.678873 
L 226.146924 83.334764 
L 225.941661 81.990655 
L 225.195716 80.646545 
L 223.931658 79.302436 
L 222.18725 77.958327 
L 220.013565 76.614218 
L 217.472512 75.270109 
L 214.63391 73.926 
L 211.57231 72.581891 
L 208.363783 71.237782 
L 205.082835 69.893673 
L 201.799645 68.549564 
L 198.577746 67.205455 
L 195.472251 65.861345 
L 192.528663 64.517236 
L 189.782276 63.173127 
L 187.258145 61.829018 
L 184.971526 60.484909 
L 182.928727 59.1408 
L 181.128244 57.796691 
L 179.56208 56.452582 
L 178.217152 55.108473 
L 177.076675 53.764364 
L 176.121473 52.420255 
L 175.331144 51.076145 
L 174.685048 49.732036 
L 174.163098 48.387927 
L 173.746366 47.043818 
L 173.41749 45.699709 
L 173.160922 44.3556 
L 172.963041 43.011491 
L 172.812146 41.667382 
L 172.69837 40.323273 
L 172.61354 38.979164 
L 172.550992 37.635055 
L 172.505382 36.290945 
L 172.472489 34.946836 
L 172.449026 33.602727 
L 172.432472 32.258618 
L 172.420919 30.914509 
L 172.412944 29.5704 
L 172.407498 28.226291 
L 172.403819 26.882182 
L 172.40136 25.538073 
L 172.399734 24.193964 
L 172.398671 22.849855 
L 172.397983 21.505745 
L 172.397542 20.161636 
L 172.397263 18.817527 
L 172.397088 17.473418 
L 172.39698 16.129309 
L 172.396913 14.7852 
L 172.396873 13.441091 
L 172.396849 12.096982 
L 172.396834 10.752873 
L 172.396826 9.408764 
L 172.396821 8.064655 
L 172.396818 6.720545 
L 172.396816 5.376436 
L 172.396815 4.032327 
L 172.396815 2.688218 
L 172.396815 1.344109 
L 172.396814 0 
" clip-path="url(#p138e44dde2)" style="fill: none; stroke: #808080; stroke-width: 1.5; stroke-linecap: square"/>
   </g>
   <g id="line2d_15">
    <path d="M 172.397006 133.0668 
L 172.397163 131.722691 
L 172.39744 130.378582 
L 172.39792 129.034473 
L 172.398742 127.690364 
L 172.400127 126.346255 
L 172.402425 125.002145 
L 172.40618 123.658036 
L 172.412223 122.313927 
L 172.421803 120.969818 
L 172.436757 119.625709 
L 172.459744 118.2816 
L 172.494537 116.937491 
L 172.546391 115.593382 
L 172.622474 114.249273 
L 172.732374 112.905164 
L 172.888637 111.561055 
L 173.107327 110.216945 
L 173.408531 108.872836 
L 173.816754 107.528727 
L 174.361101 106.184618 
L 175.075144 104.840509 
L 175.996357 103.4964 
L 177.165015 102.152291 
L 178.62248 100.808182 
L 180.408818 99.464073 
L 182.559781 98.119964 
L 185.103255 96.775855 
L 188.055358 95.431745 
L 191.416479 94.087636 
L 195.167619 92.743527 
L 199.267451 91.399418 
L 203.650524 90.055309 
L 208.227014 88.7112 
L 212.884311 87.367091 
L 217.490596 86.022982 
L 221.900375 84.678873 
L 225.961709 83.334764 
L 229.524696 81.990655 
L 232.450549 80.646545 
L 234.620534 79.302436 
L 235.943946 77.958327 
L 236.364403 76.614218 
L 235.863826 75.270109 
L 234.46373 73.926 
L 232.223689 72.581891 
L 229.237133 71.237782 
L 225.624887 69.893673 
L 221.527069 68.549564 
L 217.094119 67.205455 
L 212.477736 65.861345 
L 207.822486 64.517236 
L 203.258706 63.173127 
L 198.897129 61.829018 
L 194.825486 60.484909 
L 191.107087 59.1408 
L 187.78122 57.796691 
L 184.865061 56.452582 
L 182.356693 55.108473 
L 180.238814 53.764364 
L 178.482697 52.420255 
L 177.052079 51.076145 
L 175.90667 49.732036 
L 175.005118 48.387927 
L 174.307332 47.043818 
L 173.776144 45.699709 
L 173.378357 44.3556 
L 173.085267 43.011491 
L 172.872766 41.667382 
L 172.721136 40.323273 
L 172.614642 38.979164 
L 172.541017 37.635055 
L 172.490908 36.290945 
L 172.45733 34.946836 
L 172.435176 33.602727 
L 172.420784 32.258618 
L 172.411576 30.914509 
L 172.405775 29.5704 
L 172.402176 28.226291 
L 172.399976 26.882182 
L 172.398652 25.538073 
L 172.397867 24.193964 
L 172.397409 22.849855 
L 172.397145 21.505745 
L 172.396996 20.161636 
L 172.396912 18.817527 
L 172.396867 17.473418 
L 172.396842 16.129309 
L 172.396828 14.7852 
L 172.396821 13.441091 
L 172.396818 12.096982 
L 172.396816 10.752873 
L 172.396815 9.408764 
L 172.396815 8.064655 
L 172.396814 6.720545 
L 172.396814 5.376436 
L 172.396814 4.032327 
L 172.396814 2.688218 
L 172.396814 1.344109 
L 172.396814 0 
" clip-path="url(#p138e44dde2)" style="fill: none; stroke: #cc78bc; stroke-width: 1.5; stroke-linecap: square"/>
   </g>
   <g id="PathCollection_3">
    <g clip-path="url(#p138e44dde2)">
     <use xlink:href="#mb05045a72b" x="236.364403" y="76.614218" style="fill: #029e73; stroke: #029e73"/>
    </g>
   </g>
  </g>
  <g id="axes_4">
   <g id="patch_8">
    <path d="M 253.635652 133.0668 
L 324 133.0668 
L 324 0 
L 253.635652 0 
z
" style="fill: #ffffff"/>
   </g>
   <g id="matplotlib.axis_4">
    <g id="ytick_7">
     <g id="line2d_16">
      <g>
       <use xlink:href="#mbd0915de6a" x="253.635652" y="99.8001" style="stroke: #000000; stroke-width: 0.8"/>
      </g>
     </g>
    </g>
    <g id="ytick_8">
     <g id="line2d_17">
      <g>
       <use xlink:href="#mbd0915de6a" x="253.635652" y="33.2667" style="stroke: #000000; stroke-width: 0.8"/>
      </g>
     </g>
    </g>
   </g>
   <g id="line2d_18">
    <path d="M 258.61575 133.0668 
L 258.873429 131.722691 
L 259.160808 130.378582 
L 259.480079 129.034473 
L 259.833408 127.690364 
L 260.222899 126.346255 
L 260.650558 125.002145 
L 261.118257 123.658036 
L 261.627685 122.313927 
L 262.180304 120.969818 
L 262.777306 119.625709 
L 263.419562 118.2816 
L 264.107573 116.937491 
L 264.841428 115.593382 
L 265.620756 114.249273 
L 266.444685 112.905164 
L 267.311806 111.561055 
L 268.220142 110.216945 
L 269.167124 108.872836 
L 270.149573 107.528727 
L 271.163691 106.184618 
L 272.205069 104.840509 
L 273.268691 103.4964 
L 274.348965 102.152291 
L 275.439752 100.808182 
L 276.534417 99.464073 
L 277.625885 98.119964 
L 278.706707 96.775855 
L 279.769143 95.431745 
L 280.805246 94.087636 
L 281.806959 92.743527 
L 282.766216 91.399418 
L 283.675049 90.055309 
L 284.525698 88.7112 
L 285.310718 87.367091 
L 286.023087 86.022982 
L 286.656313 84.678873 
L 287.20453 83.334764 
L 287.662589 81.990655 
L 288.02614 80.646545 
L 288.291697 79.302436 
L 288.456698 77.958327 
L 288.519543 76.614218 
L 288.479621 75.270109 
L 288.33732 73.926 
L 288.094021 72.581891 
L 287.752074 71.237782 
L 287.314764 69.893673 
L 286.786253 68.549564 
L 286.171518 67.205455 
L 285.476274 65.861345 
L 284.706881 64.517236 
L 283.87025 63.173127 
L 282.973741 61.829018 
L 282.025054 60.484909 
L 281.032121 59.1408 
L 280.002995 57.796691 
L 278.945743 56.452582 
L 277.868345 55.108473 
L 276.778596 53.764364 
L 275.684017 52.420255 
L 274.591772 51.076145 
L 273.508601 49.732036 
L 272.440757 48.387927 
L 271.393958 47.043818 
L 270.373351 45.699709 
L 269.383481 44.3556 
L 268.428285 43.011491 
L 267.511078 41.667382 
L 266.634564 40.323273 
L 265.800852 38.979164 
L 265.011475 37.635055 
L 264.26742 36.290945 
L 263.569167 34.946836 
L 262.916727 33.602727 
L 262.309686 32.258618 
L 261.747252 30.914509 
L 261.228301 29.5704 
L 260.751427 28.226291 
L 260.314986 26.882182 
L 259.917145 25.538073 
L 259.555923 24.193964 
L 259.229235 22.849855 
L 258.934926 21.505745 
L 258.670808 20.161636 
L 258.43469 18.817527 
L 258.224404 17.473418 
L 258.037831 16.129309 
L 257.872916 14.7852 
L 257.727688 13.441091 
L 257.60027 12.096982 
L 257.48889 10.752873 
L 257.391887 9.408764 
L 257.307712 8.064655 
L 257.234935 6.720545 
L 257.17224 5.376436 
L 257.118425 4.032327 
L 257.072398 2.688218 
L 257.033172 1.344109 
L 256.999863 0 
" clip-path="url(#p096f40d7a7)" style="fill: none; stroke: #1e90ff; stroke-width: 1.5; stroke-linecap: square"/>
   </g>
   <g id="patch_9">
    <path d="M 253.635652 133.0668 
L 253.635652 0 
" style="fill: none; stroke: #000000; stroke-width: 0.8; stroke-linejoin: miter; stroke-linecap: square"/>
   </g>
   <g id="line2d_19">
    <path d="M 256.834032 133.0668 
L 256.834032 131.722691 
L 256.834032 130.378582 
L 256.834033 129.034473 
L 256.834034 127.690364 
L 256.834035 126.346255 
L 256.834038 125.002145 
L 256.834043 123.658036 
L 256.834052 122.313927 
L 256.834067 120.969818 
L 256.834092 119.625709 
L 256.834134 118.2816 
L 256.834203 116.937491 
L 256.834316 115.593382 
L 256.834497 114.249273 
L 256.834786 112.905164 
L 256.835243 111.561055 
L 256.835957 110.216945 
L 256.837059 108.872836 
L 256.838744 107.528727 
L 256.841293 106.184618 
L 256.845107 104.840509 
L 256.850753 103.4964 
L 256.85902 102.152291 
L 256.870996 100.808182 
L 256.888156 99.464073 
L 256.912479 98.119964 
L 256.946577 96.775855 
L 256.993858 95.431745 
L 257.058698 94.087636 
L 257.146636 92.743527 
L 257.264579 91.399418 
L 257.421003 90.055309 
L 257.626133 88.7112 
L 257.892101 87.367091 
L 258.233027 86.022982 
L 258.665026 84.678873 
L 259.206098 83.334764 
L 259.875866 81.990655 
L 260.695149 80.646545 
L 261.685346 79.302436 
L 262.867607 77.958327 
L 264.261809 76.614218 
L 265.885352 75.270109 
L 267.751799 73.926 
L 269.869439 72.581891 
L 272.239832 71.237782 
L 274.856439 69.893673 
L 277.703444 68.549564 
L 280.754876 67.205455 
L 283.974146 65.861345 
L 287.314084 64.517236 
L 290.717559 63.173127 
L 294.118711 61.829018 
L 297.444787 60.484909 
L 300.618554 59.1408 
L 303.561153 57.796691 
L 306.195301 56.452582 
L 308.448623 55.108473 
L 310.256941 53.764364 
L 311.567309 52.420255 
L 312.340584 51.076145 
L 312.553366 49.732036 
L 312.19918 48.387927 
L 311.288797 47.043818 
L 309.849694 45.699709 
L 307.924674 44.3556 
L 305.569755 43.011491 
L 302.85146 41.667382 
L 299.843705 40.323273 
L 296.624479 38.979164 
L 293.272522 37.635055 
L 289.864202 36.290945 
L 286.47075 34.946836 
L 283.155996 33.602727 
L 279.974671 32.258618 
L 276.971334 30.914509 
L 274.179902 29.5704 
L 271.623746 28.226291 
L 269.316266 26.882182 
L 267.261858 25.538073 
L 265.457145 24.193964 
L 263.892383 22.849855 
L 262.552916 21.505745 
L 261.420604 20.161636 
L 260.475144 18.817527 
L 259.695235 17.473418 
L 259.059556 16.129309 
L 258.547534 14.7852 
L 258.13992 13.441091 
L 257.819168 12.096982 
L 257.569655 10.752873 
L 257.377762 9.408764 
L 257.231846 8.064655 
L 257.122133 6.720545 
L 257.04056 5.376436 
L 256.980581 4.032327 
L 256.936965 2.688218 
L 256.905596 1.344109 
L 256.883282 0 
" clip-path="url(#p096f40d7a7)" style="fill: none; stroke: #808080; stroke-width: 1.5; stroke-linecap: square"/>
   </g>
   <g id="line2d_20">
    <path d="M 256.834032 133.0668 
L 256.834032 131.722691 
L 256.834032 130.378582 
L 256.834032 129.034473 
L 256.834032 127.690364 
L 256.834032 126.346255 
L 256.834033 125.002145 
L 256.834035 123.658036 
L 256.834037 122.313927 
L 256.834043 120.969818 
L 256.834053 119.625709 
L 256.834071 118.2816 
L 256.834105 116.937491 
L 256.834165 115.593382 
L 256.834271 114.249273 
L 256.834457 112.905164 
L 256.834776 111.561055 
L 256.835316 110.216945 
L 256.83622 108.872836 
L 256.837709 107.528727 
L 256.84013 106.184618 
L 256.844009 104.840509 
L 256.850137 103.4964 
L 256.859682 102.152291 
L 256.874339 100.808182 
L 256.896523 99.464073 
L 256.929624 98.119964 
L 256.978303 96.775855 
L 257.048864 95.431745 
L 257.149662 94.087636 
L 257.291557 92.743527 
L 257.488384 91.399418 
L 257.757383 90.055309 
L 258.119559 88.7112 
L 258.599886 87.367091 
L 259.227279 86.022982 
L 260.034247 84.678873 
L 261.056147 83.334764 
L 262.329947 81.990655 
L 263.892478 80.646545 
L 265.778144 79.302436 
L 268.016162 77.958327 
L 270.627419 76.614218 
L 273.62116 75.270109 
L 276.991734 73.926 
L 280.715704 72.581891 
L 284.749671 71.237782 
L 289.029112 69.893673 
L 293.468556 68.549564 
L 297.963275 67.205455 
L 302.392592 65.861345 
L 306.624748 64.517236 
L 310.5231 63.173127 
L 313.953278 61.829018 
L 316.790795 60.484909 
L 318.928513 59.1408 
L 320.283347 57.796691 
L 320.801621 56.452582 
L 320.462598 55.108473 
L 319.279856 53.764364 
L 317.300385 52.420255 
L 314.601491 51.076145 
L 311.285784 49.732036 
L 307.474717 48.387927 
L 303.301219 47.043818 
L 298.902076 45.699709 
L 294.410621 44.3556 
L 289.950309 43.011491 
L 285.629541 41.667382 
L 281.538024 40.323273 
L 277.744734 38.979164 
L 274.297448 37.635055 
L 271.223638 36.290945 
L 268.532466 34.946836 
L 266.217549 33.602727 
L 264.260164 32.258618 
L 262.632574 30.914509 
L 261.301218 29.5704 
L 260.229569 28.226291 
L 259.380521 26.882182 
L 258.718264 25.538073 
L 258.209613 24.193964 
L 257.824857 22.849855 
L 257.538184 21.505745 
L 257.327769 20.161636 
L 257.175605 18.817527 
L 257.067179 17.473418 
L 256.991045 16.129309 
L 256.93836 14.7852 
L 256.902427 13.441091 
L 256.878271 12.096982 
L 256.862264 10.752873 
L 256.851809 9.408764 
L 256.845075 8.064655 
L 256.840801 6.720545 
L 256.838125 5.376436 
L 256.836474 4.032327 
L 256.83547 2.688218 
L 256.834867 1.344109 
L 256.83451 0 
" clip-path="url(#p096f40d7a7)" style="fill: none; stroke: #cc78bc; stroke-width: 1.5; stroke-linecap: square"/>
   </g>
   <g id="PathCollection_4">
    <g clip-path="url(#p096f40d7a7)">
     <use xlink:href="#mb05045a72b" x="320.801621" y="56.452582" style="fill: #029e73; stroke: #029e73"/>
    </g>
   </g>
  </g>
 </g>
 <defs>
  <clipPath id="p864758d3c9">
   <rect x="0.324" y="0" width="70.364348" height="133.0668"/>
  </clipPath>
  <clipPath id="pdd7ee13145">
   <rect x="84.761217" y="0" width="70.364348" height="133.0668"/>
  </clipPath>
  <clipPath id="p138e44dde2">
   <rect x="169.198435" y="0" width="70.364348" height="133.0668"/>
  </clipPath>
  <clipPath id="p096f40d7a7">
   <rect x="253.635652" y="0" width="70.364348" height="133.0668"/>
  </clipPath>
 </defs>
</svg>
