<?xml version="1.0" encoding="utf-8" standalone="no"?>
<!DOCTYPE svg PUBLIC "-//W3C//DTD SVG 1.1//EN"
  "http://www.w3.org/Graphics/SVG/1.1/DTD/svg11.dtd">
<svg xmlns:xlink="http://www.w3.org/1999/xlink" width="720pt" height="133.2pt" viewBox="0 0 720 133.2" xmlns="http://www.w3.org/2000/svg" version="1.1">
 <metadata>
  <rdf:RDF xmlns:dc="http://purl.org/dc/elements/1.1/" xmlns:cc="http://creativecommons.org/ns#" xmlns:rdf="http://www.w3.org/1999/02/22-rdf-syntax-ns#">
   <cc:Work>
    <dc:type rdf:resource="http://purl.org/dc/dcmitype/StillImage"/>
    <dc:date>2022-09-21T15:28:54.656910</dc:date>
    <dc:format>image/svg+xml</dc:format>
    <dc:creator>
     <cc:Agent>
      <dc:title>Matplotlib v3.5.2, https://matplotlib.org/</dc:title>
     </cc:Agent>
    </dc:creator>
   </cc:Work>
  </rdf:RDF>
 </metadata>
 <defs>
  <style type="text/css">*{stroke-linejoin: round; stroke-linecap: butt}</style>
 </defs>
 <g id="figure_1">
  <g id="patch_1">
   <path d="M 0 133.2 
L 720 133.2 
L 720 0 
L 0 0 
z
" style="fill: #ffffff"/>
  </g>
  <g id="axes_1">
   <g id="patch_2">
    <path d="M 144 131.868 
L 271.741935 131.868 
L 271.741935 19.98 
L 144 19.98 
z
" style="fill: #ffffff"/>
   </g>
   <g id="matplotlib.axis_1">
    <g id="ytick_1">
     <g id="line2d_1">
      <defs>
       <path id="m377515d15a" d="M 0 0 
L -3.5 0 
" style="stroke: #000000; stroke-width: 0.8"/>
      </defs>
      <g>
       <use xlink:href="#m377515d15a" x="144" y="100.247478" style="stroke: #000000; stroke-width: 0.8"/>
      </g>
     </g>
     <g id="text_1">
      <!--   -->
      <g transform="translate(134.499687 103.468494)scale(0.09 -0.09)">
       <defs>
        <path id="ArialMT-20" transform="scale(0.015625)"/>
       </defs>
       <use xlink:href="#ArialMT-20"/>
      </g>
     </g>
    </g>
    <g id="ytick_2">
     <g id="line2d_2">
      <g>
       <use xlink:href="#m377515d15a" x="144" y="51.600522" style="stroke: #000000; stroke-width: 0.8"/>
      </g>
     </g>
     <g id="text_2">
      <!--   -->
      <g transform="translate(134.499687 54.821537)scale(0.09 -0.09)">
       <use xlink:href="#ArialMT-20"/>
      </g>
     </g>
    </g>
   </g>
   <g id="line2d_3">
    <path d="M 144 131.868 
L 144 19.98 
" clip-path="url(#p5547418647)" style="fill: none; stroke: #a9a9a9; stroke-width: 1.5; stroke-linecap: square"/>
   </g>
   <g id="patch_3">
    <path d="M 144 131.868 
L 144 19.98 
" style="fill: none; stroke: #000000; stroke-width: 0.8; stroke-linejoin: miter; stroke-linecap: square"/>
   </g>
   <g id="line2d_4">
    <path d="M 154.450953 124.570957 
L 155.04793 123.58819 
L 155.665774 122.605423 
L 156.304214 121.622656 
L 156.96289 120.639889 
L 157.641353 119.657123 
L 158.339062 118.674356 
L 159.055378 117.691589 
L 159.789568 116.708822 
L 160.540799 115.726055 
L 161.308138 114.743289 
L 162.090555 113.760522 
L 162.886918 112.777755 
L 163.695995 111.794988 
L 164.51646 110.812221 
L 165.346888 109.829455 
L 166.185764 108.846688 
L 167.03148 107.863921 
L 167.882344 106.881154 
L 168.736583 105.898387 
L 169.592347 104.915621 
L 170.447717 103.932854 
L 171.300708 102.950087 
L 172.149279 101.96732 
L 172.991341 100.984553 
L 173.824762 100.001787 
L 174.647377 99.01902 
L 175.457 98.036253 
L 176.251427 97.053486 
L 177.028453 96.070719 
L 177.785875 95.087953 
L 178.521508 94.105186 
L 179.233194 93.122419 
L 179.918808 92.139652 
L 180.576274 91.156885 
L 181.203575 90.174119 
L 181.798758 89.191352 
L 182.359951 88.208585 
L 182.885368 87.225818 
L 183.37332 86.243051 
L 183.822223 85.260285 
L 184.230611 84.277518 
L 184.597137 83.294751 
L 184.920585 82.311984 
L 185.199877 81.329217 
L 185.434075 80.346451 
L 185.622393 79.363684 
L 185.764192 78.380917 
L 185.858993 77.39815 
L 185.906474 76.415383 
L 185.906474 75.432617 
L 185.858993 74.44985 
L 185.764192 73.467083 
L 185.622393 72.484316 
L 185.434075 71.501549 
L 185.199877 70.518783 
L 184.920585 69.536016 
L 184.597137 68.553249 
L 184.230611 67.570482 
L 183.822223 66.587715 
L 183.37332 65.604949 
L 182.885368 64.622182 
L 182.359951 63.639415 
L 181.798758 62.656648 
L 181.203575 61.673881 
L 180.576274 60.691115 
L 179.918808 59.708348 
L 179.233194 58.725581 
L 178.521508 57.742814 
L 177.785875 56.760047 
L 177.028453 55.777281 
L 176.251427 54.794514 
L 175.457 53.811747 
L 174.647377 52.82898 
L 173.824762 51.846213 
L 172.991341 50.863447 
L 172.149279 49.88068 
L 171.300708 48.897913 
L 170.447717 47.915146 
L 169.592347 46.932379 
L 168.736583 45.949613 
L 167.882344 44.966846 
L 167.03148 43.984079 
L 166.185764 43.001312 
L 165.346888 42.018545 
L 164.51646 41.035779 
L 163.695995 40.053012 
L 162.886918 39.070245 
L 162.090555 38.087478 
L 161.308138 37.104711 
L 160.540799 36.121945 
L 159.789568 35.139178 
L 159.055378 34.156411 
L 158.339062 33.173644 
L 157.641353 32.190877 
L 156.96289 31.208111 
L 156.304214 30.225344 
L 155.665774 29.242577 
L 155.04793 28.25981 
L 154.450953 27.277043 
" clip-path="url(#p5547418647)" style="fill: none; stroke: #1e90ff; stroke-width: 1.5; stroke-linecap: square"/>
   </g>
   <g id="line2d_5">
    <path d="M 156.617614 124.570957 
L 158.782513 123.58819 
L 161.206138 122.605423 
L 163.896771 121.622656 
L 166.858404 120.639889 
L 170.089951 119.657123 
L 173.584533 118.674356 
L 177.328844 117.691589 
L 181.302665 116.708822 
L 185.478548 115.726055 
L 189.821713 114.743289 
L 194.290178 113.760522 
L 198.835159 112.777755 
L 203.401734 111.794988 
L 207.929781 110.812221 
L 212.355173 109.829455 
L 216.611205 108.846688 
L 220.630204 107.863921 
L 224.345285 106.881154 
L 227.692183 105.898387 
L 230.611083 104.915621 
L 233.048402 103.932854 
L 234.958411 102.950087 
L 236.304673 101.96732 
L 237.061187 100.984553 
L 237.213232 100.001787 
L 236.75784 99.01902 
L 235.703892 98.036253 
L 234.07183 97.053486 
L 231.893 96.070719 
L 229.208648 95.087953 
L 226.068621 94.105186 
L 222.529834 93.122419 
L 218.654554 92.139652 
L 214.508586 91.156885 
L 210.159436 90.174119 
L 205.674503 89.191352 
L 201.119396 88.208585 
L 196.556403 87.225818 
L 192.043179 86.243051 
L 187.631679 85.260285 
L 183.367351 84.277518 
L 179.288609 83.294751 
L 175.426569 82.311984 
L 171.805037 81.329217 
L 168.440724 80.346451 
L 165.343653 79.363684 
L 162.517719 78.380917 
L 159.961376 77.39815 
L 157.668386 76.415383 
L 155.628621 75.432617 
L 153.828863 74.44985 
L 152.253582 73.467083 
L 150.885662 72.484316 
L 149.707067 71.501549 
L 148.699422 70.518783 
L 147.8445 69.536016 
L 147.124636 68.553249 
L 146.523034 67.570482 
L 146.024001 66.587715 
L 145.613105 65.604949 
L 145.277258 64.622182 
L 145.004751 63.639415 
L 144.78524 62.656648 
L 144.609692 61.673881 
L 144.470308 60.691115 
L 144.360428 59.708348 
L 144.274422 58.725581 
L 144.207579 57.742814 
L 144.155996 56.760047 
L 144.116468 55.777281 
L 144.08639 54.794514 
L 144.063662 53.811747 
L 144.046609 52.82898 
L 144.033901 51.846213 
L 144.024498 50.863447 
L 144.017588 49.88068 
L 144.012544 48.897913 
L 144.008889 47.915146 
L 144.006258 46.932379 
L 144.004377 45.949613 
L 144.003041 44.966846 
L 144.002099 43.984079 
L 144.00144 43.001312 
L 144.000981 42.018545 
L 144.000664 41.035779 
L 144.000447 40.053012 
L 144.000298 39.070245 
L 144.000198 38.087478 
L 144.000131 37.104711 
L 144.000086 36.121945 
L 144.000056 35.139178 
L 144.000036 34.156411 
L 144.000023 33.173644 
L 144.000015 32.190877 
L 144.000009 31.208111 
L 144.000006 30.225344 
L 144.000004 29.242577 
L 144.000002 28.25981 
L 144.000001 27.277043 
" clip-path="url(#p5547418647)" style="fill: none; stroke: #808080; stroke-width: 1.5; stroke-linecap: square"/>
   </g>
   <g id="line2d_6">
    <path d="M 148.51296 124.570957 
L 149.589301 123.58819 
L 150.869503 122.605423 
L 152.378472 121.622656 
L 154.14089 120.639889 
L 156.18033 119.657123 
L 158.518234 118.674356 
L 161.172766 117.691589 
L 164.157582 116.708822 
L 167.480555 115.726055 
L 171.14251 114.743289 
L 175.136042 113.760522 
L 179.444473 112.777755 
L 184.041043 111.794988 
L 188.888385 110.812221 
L 193.938363 109.829455 
L 199.132332 108.846688 
L 204.401838 107.863921 
L 209.669797 106.881154 
L 214.852134 105.898387 
L 219.85984 104.915621 
L 224.601412 103.932854 
L 228.985553 102.950087 
L 232.924063 101.96732 
L 236.33476 100.984553 
L 239.144323 100.001787 
L 241.290912 99.01902 
L 242.726422 98.036253 
L 243.418283 97.053486 
L 243.350681 96.070719 
L 242.525166 95.087953 
L 240.960586 94.105186 
L 238.692378 93.122419 
L 235.771229 92.139652 
L 232.261196 91.156885 
L 228.23737 90.174119 
L 223.783214 89.191352 
L 218.987691 88.208585 
L 213.942343 87.225818 
L 208.738421 86.243051 
L 203.464225 85.260285 
L 198.202729 84.277518 
L 193.029592 83.294751 
L 188.011598 82.311984 
L 183.205566 81.329217 
L 178.657725 80.346451 
L 174.403537 79.363684 
L 170.467926 78.380917 
L 166.865854 77.39815 
L 163.603187 76.415383 
L 160.677759 75.432617 
L 158.080576 74.44985 
L 155.797089 73.467083 
L 153.808465 72.484316 
L 152.092803 71.501549 
L 150.626263 70.518783 
L 149.384062 69.536016 
L 148.341334 68.553249 
L 147.473826 67.570482 
L 146.758447 66.587715 
L 146.173667 65.604949 
L 145.699781 64.622182 
L 145.319061 63.639415 
L 145.0158 62.656648 
L 144.776289 61.673881 
L 144.588722 60.691115 
L 144.443067 59.708348 
L 144.330902 58.725581 
L 144.245246 57.742814 
L 144.180375 56.760047 
L 144.13165 55.777281 
L 144.095354 54.794514 
L 144.068537 53.811747 
L 144.048886 52.82898 
L 144.034604 51.846213 
L 144.024307 50.863447 
L 144.016943 49.88068 
L 144.011721 48.897913 
L 144.008046 47.915146 
L 144.005481 46.932379 
L 144.003705 45.949613 
L 144.002486 44.966846 
L 144.001655 43.984079 
L 144.001093 43.001312 
L 144.000717 42.018545 
L 144.000466 41.035779 
L 144.000301 40.053012 
L 144.000193 39.070245 
L 144.000123 38.087478 
L 144.000077 37.104711 
L 144.000048 36.121945 
L 144.00003 35.139178 
L 144.000019 34.156411 
L 144.000011 33.173644 
L 144.000007 32.190877 
L 144.000004 31.208111 
L 144.000002 30.225344 
L 144.000001 29.242577 
L 144.000001 28.25981 
L 144.000001 27.277043 
" clip-path="url(#p5547418647)" style="fill: none; stroke: #cc78bc; stroke-width: 1.5; stroke-linecap: square"/>
   </g>
   <g id="PathCollection_1">
    <defs>
     <path id="m2fce6bec69" d="M 0 -2.738613 
L -0.614857 -0.846278 
L -2.604576 -0.846278 
L -0.994859 0.323249 
L -1.609716 2.215584 
L -0 1.046057 
L 1.609716 2.215584 
L 0.994859 0.323249 
L 2.604576 -0.846278 
L 0.614857 -0.846278 
z
" style="stroke: #029e73"/>
    </defs>
    <g>
     <use xlink:href="#m2fce6bec69" x="243.418283" y="97.053486" style="fill: #029e73; stroke: #029e73"/>
    </g>
   </g>
  </g>
  <g id="axes_2">
   <g id="patch_4">
    <path d="M 278.129032 131.868 
L 405.870968 131.868 
L 405.870968 19.98 
L 278.129032 19.98 
z
" style="fill: #ffffff"/>
   </g>
   <g id="matplotlib.axis_2">
    <g id="ytick_3">
     <g id="line2d_7">
      <g>
       <use xlink:href="#m377515d15a" x="278.129032" y="100.247478" style="stroke: #000000; stroke-width: 0.8"/>
      </g>
     </g>
     <g id="text_3">
      <!--   -->
      <g transform="translate(268.62872 103.468494)scale(0.09 -0.09)">
       <use xlink:href="#ArialMT-20"/>
      </g>
     </g>
    </g>
    <g id="ytick_4">
     <g id="line2d_8">
      <g>
       <use xlink:href="#m377515d15a" x="278.129032" y="51.600522" style="stroke: #000000; stroke-width: 0.8"/>
      </g>
     </g>
     <g id="text_4">
      <!--   -->
      <g transform="translate(268.62872 54.821537)scale(0.09 -0.09)">
       <use xlink:href="#ArialMT-20"/>
      </g>
     </g>
    </g>
   </g>
   <g id="line2d_9">
    <path d="M 278.129032 131.868 
L 278.129032 19.98 
" clip-path="url(#p2f213106c4)" style="fill: none; stroke: #a9a9a9; stroke-width: 1.5; stroke-linecap: square"/>
   </g>
   <g id="patch_5">
    <path d="M 278.129032 131.868 
L 278.129032 19.98 
" style="fill: none; stroke: #000000; stroke-width: 0.8; stroke-linejoin: miter; stroke-linecap: square"/>
   </g>
   <g id="line2d_10">
    <path d="M 288.628777 124.570957 
L 289.228541 123.58819 
L 289.84927 122.605423 
L 290.49069 121.622656 
L 291.152441 120.639889 
L 291.834072 119.657123 
L 292.535038 118.674356 
L 293.254698 117.691589 
L 293.992316 116.708822 
L 294.747054 115.726055 
L 295.517976 114.743289 
L 296.304046 113.760522 
L 297.104126 112.777755 
L 297.916981 111.794988 
L 298.741276 110.812221 
L 299.575582 109.829455 
L 300.418373 108.846688 
L 301.268037 107.863921 
L 302.122874 106.881154 
L 302.981101 105.898387 
L 303.840861 104.915621 
L 304.700224 103.932854 
L 305.557197 102.950087 
L 306.40973 101.96732 
L 307.255723 100.984553 
L 308.093035 100.001787 
L 308.919491 99.01902 
L 309.732893 98.036253 
L 310.53103 97.053486 
L 311.311683 96.070719 
L 312.072641 95.087953 
L 312.811709 94.105186 
L 313.526717 93.122419 
L 314.215532 92.139652 
L 314.876068 91.156885 
L 315.506297 90.174119 
L 316.104259 89.191352 
L 316.668072 88.208585 
L 317.195942 87.225818 
L 317.686172 86.243051 
L 318.137171 85.260285 
L 318.547465 84.277518 
L 318.915702 83.294751 
L 319.240661 82.311984 
L 319.521256 81.329217 
L 319.756548 80.346451 
L 319.945745 79.363684 
L 320.088206 78.380917 
L 320.18345 77.39815 
L 320.231153 76.415383 
L 320.231153 75.432617 
L 320.18345 74.44985 
L 320.088206 73.467083 
L 319.945745 72.484316 
L 319.756548 71.501549 
L 319.521256 70.518783 
L 319.240661 69.536016 
L 318.915702 68.553249 
L 318.547465 67.570482 
L 318.137171 66.587715 
L 317.686172 65.604949 
L 317.195942 64.622182 
L 316.668072 63.639415 
L 316.104259 62.656648 
L 315.506297 61.673881 
L 314.876068 60.691115 
L 314.215532 59.708348 
L 313.526717 58.725581 
L 312.811709 57.742814 
L 312.072641 56.760047 
L 311.311683 55.777281 
L 310.53103 54.794514 
L 309.732893 53.811747 
L 308.919491 52.82898 
L 308.093035 51.846213 
L 307.255723 50.863447 
L 306.40973 49.88068 
L 305.557197 48.897913 
L 304.700224 47.915146 
L 303.840861 46.932379 
L 302.981101 45.949613 
L 302.122874 44.966846 
L 301.268037 43.984079 
L 300.418373 43.001312 
L 299.575582 42.018545 
L 298.741276 41.035779 
L 297.916981 40.053012 
L 297.104126 39.070245 
L 296.304046 38.087478 
L 295.517976 37.104711 
L 294.747054 36.121945 
L 293.992316 35.139178 
L 293.254698 34.156411 
L 292.535038 33.173644 
L 291.834072 32.190877 
L 291.152441 31.208111 
L 290.49069 30.225344 
L 289.84927 29.242577 
L 289.228541 28.25981 
L 288.628777 27.277043 
" clip-path="url(#p2f213106c4)" style="fill: none; stroke: #1e90ff; stroke-width: 1.5; stroke-linecap: square"/>
   </g>
   <g id="line2d_11">
    <path d="M 278.159808 124.570957 
L 278.171413 123.58819 
L 278.187014 122.605423 
L 278.207841 121.622656 
L 278.235454 120.639889 
L 278.271805 119.657123 
L 278.319327 118.674356 
L 278.381015 117.691589 
L 278.460529 116.708822 
L 278.562295 115.726055 
L 278.691618 114.743289 
L 278.854786 113.760522 
L 279.059185 112.777755 
L 279.313391 111.794988 
L 279.627255 110.812221 
L 280.011959 109.829455 
L 280.480044 108.846688 
L 281.045385 107.863921 
L 281.723127 106.881154 
L 282.529542 105.898387 
L 283.481827 104.915621 
L 284.59781 103.932854 
L 285.895579 102.950087 
L 287.393016 101.96732 
L 289.107247 100.984553 
L 291.054007 100.001787 
L 293.246943 99.01902 
L 295.696854 98.036253 
L 298.410909 97.053486 
L 301.391857 96.070719 
L 304.637269 95.087953 
L 308.138847 94.105186 
L 311.881837 93.122419 
L 315.844587 92.139652 
L 319.998285 91.156885 
L 324.306913 90.174119 
L 328.727442 89.191352 
L 333.210287 88.208585 
L 337.700028 87.225818 
L 342.136401 86.243051 
L 346.455531 85.260285 
L 350.591387 84.277518 
L 354.477407 83.294751 
L 358.048252 82.311984 
L 361.24161 81.329217 
L 363.999999 80.346451 
L 366.272479 79.363684 
L 368.016219 78.380917 
L 369.197835 77.39815 
L 369.794455 76.415383 
L 369.794455 75.432617 
L 369.197835 74.44985 
L 368.016219 73.467083 
L 366.272479 72.484316 
L 363.999999 71.501549 
L 361.24161 70.518783 
L 358.048252 69.536016 
L 354.477407 68.553249 
L 350.591387 67.570482 
L 346.455531 66.587715 
L 342.136401 65.604949 
L 337.700028 64.622182 
L 333.210287 63.639415 
L 328.727442 62.656648 
L 324.306913 61.673881 
L 319.998285 60.691115 
L 315.844587 59.708348 
L 311.881837 58.725581 
L 308.138847 57.742814 
L 304.637269 56.760047 
L 301.391857 55.777281 
L 298.410909 54.794514 
L 295.696854 53.811747 
L 293.246943 52.82898 
L 291.054007 51.846213 
L 289.107247 50.863447 
L 287.393016 49.88068 
L 285.895579 48.897913 
L 284.59781 47.915146 
L 283.481827 46.932379 
L 282.529542 45.949613 
L 281.723127 44.966846 
L 281.045385 43.984079 
L 280.480044 43.001312 
L 280.011959 42.018545 
L 279.627255 41.035779 
L 279.313391 40.053012 
L 279.059185 39.070245 
L 278.854786 38.087478 
L 278.691618 37.104711 
L 278.562295 36.121945 
L 278.460529 35.139178 
L 278.381015 34.156411 
L 278.319327 33.173644 
L 278.271805 32.190877 
L 278.235454 31.208111 
L 278.207841 30.225344 
L 278.187014 29.242577 
L 278.171413 28.25981 
L 278.159808 27.277043 
" clip-path="url(#p2f213106c4)" style="fill: none; stroke: #808080; stroke-width: 1.5; stroke-linecap: square"/>
   </g>
   <g id="line2d_12">
    <path d="M 278.137345 124.570957 
L 278.141134 123.58819 
L 278.146515 122.605423 
L 278.154095 121.622656 
L 278.164688 120.639889 
L 278.179371 119.657123 
L 278.199558 118.674356 
L 278.227086 117.691589 
L 278.264318 116.708822 
L 278.314262 115.726055 
L 278.380707 114.743289 
L 278.468378 113.760522 
L 278.583096 112.777755 
L 278.731956 111.794988 
L 278.923507 110.812221 
L 279.167922 109.829455 
L 279.477159 108.846688 
L 279.865087 107.863921 
L 280.347576 106.881154 
L 280.942515 105.898387 
L 281.669758 104.915621 
L 282.550964 103.932854 
L 283.609321 102.950087 
L 284.869137 101.96732 
L 286.355276 100.984553 
L 288.092448 100.001787 
L 290.104339 99.01902 
L 292.412603 98.036253 
L 295.035724 97.053486 
L 297.987798 96.070719 
L 301.277251 95.087953 
L 304.905584 94.105186 
L 308.866171 93.122419 
L 313.143213 92.139652 
L 317.710896 91.156885 
L 322.532842 90.174119 
L 327.561919 89.191352 
L 332.740448 88.208585 
L 338.000876 87.225818 
L 343.266904 86.243051 
L 348.455084 85.260285 
L 353.476842 84.277518 
L 358.240883 83.294751 
L 362.655872 82.311984 
L 366.633304 81.329217 
L 370.09043 80.346451 
L 372.953111 79.363684 
L 375.158451 78.380917 
L 376.6571 77.39815 
L 377.415082 76.415383 
L 377.415082 75.432617 
L 376.6571 74.44985 
L 375.158451 73.467083 
L 372.953111 72.484316 
L 370.09043 71.501549 
L 366.633304 70.518783 
L 362.655872 69.536016 
L 358.240883 68.553249 
L 353.476842 67.570482 
L 348.455084 66.587715 
L 343.266904 65.604949 
L 338.000876 64.622182 
L 332.740448 63.639415 
L 327.561919 62.656648 
L 322.532842 61.673881 
L 317.710896 60.691115 
L 313.143213 59.708348 
L 308.866171 58.725581 
L 304.905584 57.742814 
L 301.277251 56.760047 
L 297.987798 55.777281 
L 295.035724 54.794514 
L 292.412603 53.811747 
L 290.104339 52.82898 
L 288.092448 51.846213 
L 286.355276 50.863447 
L 284.869137 49.88068 
L 283.609321 48.897913 
L 282.550964 47.915146 
L 281.669758 46.932379 
L 280.942515 45.949613 
L 280.347576 44.966846 
L 279.865087 43.984079 
L 279.477159 43.001312 
L 279.167922 42.018545 
L 278.923507 41.035779 
L 278.731956 40.053012 
L 278.583096 39.070245 
L 278.468378 38.087478 
L 278.380707 37.104711 
L 278.314262 36.121945 
L 278.264318 35.139178 
L 278.227086 34.156411 
L 278.199558 33.173644 
L 278.179371 32.190877 
L 278.164688 31.208111 
L 278.154095 30.225344 
L 278.146515 29.242577 
L 278.141134 28.25981 
L 278.137345 27.277043 
" clip-path="url(#p2f213106c4)" style="fill: none; stroke: #cc78bc; stroke-width: 1.5; stroke-linecap: square"/>
   </g>
   <g id="PathCollection_2">
    <g>
     <use xlink:href="#m2fce6bec69" x="377.415082" y="76.415383" style="fill: #029e73; stroke: #029e73"/>
    </g>
   </g>
  </g>
  <g id="axes_3">
   <g id="patch_6">
    <path d="M 412.258065 131.868 
L 540 131.868 
L 540 19.98 
L 412.258065 19.98 
z
" style="fill: #ffffff"/>
   </g>
   <g id="matplotlib.axis_3">
    <g id="ytick_5">
     <g id="line2d_13">
      <g>
       <use xlink:href="#m377515d15a" x="412.258065" y="100.247478" style="stroke: #000000; stroke-width: 0.8"/>
      </g>
     </g>
     <g id="text_5">
      <!--   -->
      <g transform="translate(402.757752 103.468494)scale(0.09 -0.09)">
       <use xlink:href="#ArialMT-20"/>
      </g>
     </g>
    </g>
    <g id="ytick_6">
     <g id="line2d_14">
      <g>
       <use xlink:href="#m377515d15a" x="412.258065" y="51.600522" style="stroke: #000000; stroke-width: 0.8"/>
      </g>
     </g>
     <g id="text_6">
      <!--   -->
      <g transform="translate(402.757752 54.821537)scale(0.09 -0.09)">
       <use xlink:href="#ArialMT-20"/>
      </g>
     </g>
    </g>
   </g>
   <g id="line2d_15">
    <path d="M 412.258065 131.868 
L 412.258065 19.98 
" clip-path="url(#p890b852371)" style="fill: none; stroke: #a9a9a9; stroke-width: 1.5; stroke-linecap: square"/>
   </g>
   <g id="patch_7">
    <path d="M 412.258065 131.868 
L 412.258065 19.98 
" style="fill: none; stroke: #000000; stroke-width: 0.8; stroke-linejoin: miter; stroke-linecap: square"/>
   </g>
   <g id="line2d_16">
    <path d="M 422.709017 124.570957 
L 423.305994 123.58819 
L 423.923839 122.605423 
L 424.562278 121.622656 
L 425.220955 120.639889 
L 425.899418 119.657123 
L 426.597126 118.674356 
L 427.313442 117.691589 
L 428.047632 116.708822 
L 428.798863 115.726055 
L 429.566203 114.743289 
L 430.34862 113.760522 
L 431.144982 112.777755 
L 431.95406 111.794988 
L 432.774525 110.812221 
L 433.604953 109.829455 
L 434.443828 108.846688 
L 435.289544 107.863921 
L 436.140408 106.881154 
L 436.994647 105.898387 
L 437.850412 104.915621 
L 438.705781 103.932854 
L 439.558772 102.950087 
L 440.407344 101.96732 
L 441.249406 100.984553 
L 442.082826 100.001787 
L 442.905442 99.01902 
L 443.715064 98.036253 
L 444.509492 97.053486 
L 445.286517 96.070719 
L 446.043939 95.087953 
L 446.779573 94.105186 
L 447.491258 93.122419 
L 448.176872 92.139652 
L 448.834339 91.156885 
L 449.46164 90.174119 
L 450.056823 89.191352 
L 450.618016 88.208585 
L 451.143432 87.225818 
L 451.631384 86.243051 
L 452.080288 85.260285 
L 452.488675 84.277518 
L 452.855201 83.294751 
L 453.17865 82.311984 
L 453.457941 81.329217 
L 453.69214 80.346451 
L 453.880457 79.363684 
L 454.022256 78.380917 
L 454.117058 77.39815 
L 454.164539 76.415383 
L 454.164539 75.432617 
L 454.117058 74.44985 
L 454.022256 73.467083 
L 453.880457 72.484316 
L 453.69214 71.501549 
L 453.457941 70.518783 
L 453.17865 69.536016 
L 452.855201 68.553249 
L 452.488675 67.570482 
L 452.080288 66.587715 
L 451.631384 65.604949 
L 451.143432 64.622182 
L 450.618016 63.639415 
L 450.056823 62.656648 
L 449.46164 61.673881 
L 448.834339 60.691115 
L 448.176872 59.708348 
L 447.491258 58.725581 
L 446.779573 57.742814 
L 446.043939 56.760047 
L 445.286517 55.777281 
L 444.509492 54.794514 
L 443.715064 53.811747 
L 442.905442 52.82898 
L 442.082826 51.846213 
L 441.249406 50.863447 
L 440.407344 49.88068 
L 439.558772 48.897913 
L 438.705781 47.915146 
L 437.850412 46.932379 
L 436.994647 45.949613 
L 436.140408 44.966846 
L 435.289544 43.984079 
L 434.443828 43.001312 
L 433.604953 42.018545 
L 432.774525 41.035779 
L 431.95406 40.053012 
L 431.144982 39.070245 
L 430.34862 38.087478 
L 429.566203 37.104711 
L 428.798863 36.121945 
L 428.047632 35.139178 
L 427.313442 34.156411 
L 426.597126 33.173644 
L 425.899418 32.190877 
L 425.220955 31.208111 
L 424.562278 30.225344 
L 423.923839 29.242577 
L 423.305994 28.25981 
L 422.709017 27.277043 
" clip-path="url(#p890b852371)" style="fill: none; stroke: #1e90ff; stroke-width: 1.5; stroke-linecap: square"/>
   </g>
   <g id="line2d_17">
    <path d="M 412.258066 124.570957 
L 412.258067 123.58819 
L 412.258068 122.605423 
L 412.25807 121.622656 
L 412.258074 120.639889 
L 412.258079 119.657123 
L 412.258088 118.674356 
L 412.258101 117.691589 
L 412.25812 116.708822 
L 412.25815 115.726055 
L 412.258195 114.743289 
L 412.258263 113.760522 
L 412.258363 112.777755 
L 412.258511 111.794988 
L 412.258729 110.812221 
L 412.259046 109.829455 
L 412.259504 108.846688 
L 412.260164 107.863921 
L 412.261106 106.881154 
L 412.262441 105.898387 
L 412.264322 104.915621 
L 412.266954 103.932854 
L 412.270609 102.950087 
L 412.275652 101.96732 
L 412.282562 100.984553 
L 412.291966 100.001787 
L 412.304673 99.01902 
L 412.321727 98.036253 
L 412.344454 97.053486 
L 412.374532 96.070719 
L 412.41406 95.087953 
L 412.465644 94.105186 
L 412.532487 93.122419 
L 412.618493 92.139652 
L 412.728373 91.156885 
L 412.867757 90.174119 
L 413.043305 89.191352 
L 413.262815 88.208585 
L 413.535322 87.225818 
L 413.871169 86.243051 
L 414.282066 85.260285 
L 414.781098 84.277518 
L 415.382701 83.294751 
L 416.102565 82.311984 
L 416.957486 81.329217 
L 417.965132 80.346451 
L 419.143726 79.363684 
L 420.511646 78.380917 
L 422.086928 77.39815 
L 423.886686 76.415383 
L 425.926451 75.432617 
L 428.21944 74.44985 
L 430.775784 73.467083 
L 433.601717 72.484316 
L 436.698789 71.501549 
L 440.063102 70.518783 
L 443.684634 69.536016 
L 447.546674 68.553249 
L 451.625416 67.570482 
L 455.889744 66.587715 
L 460.301244 65.604949 
L 464.814467 64.622182 
L 469.37746 63.639415 
L 473.932567 62.656648 
L 478.4175 61.673881 
L 482.766651 60.691115 
L 486.912618 59.708348 
L 490.787898 58.725581 
L 494.326685 57.742814 
L 497.466712 56.760047 
L 500.151065 55.777281 
L 502.329895 54.794514 
L 503.961956 53.811747 
L 505.015904 52.82898 
L 505.471296 51.846213 
L 505.319251 50.863447 
L 504.562737 49.88068 
L 503.216476 48.897913 
L 501.306466 47.915146 
L 498.869148 46.932379 
L 495.950247 45.949613 
L 492.60335 44.966846 
L 488.888268 43.984079 
L 484.86927 43.001312 
L 480.613238 42.018545 
L 476.187845 41.035779 
L 471.659798 40.053012 
L 467.093224 39.070245 
L 462.548243 38.087478 
L 458.079778 37.104711 
L 453.736613 36.121945 
L 449.560729 35.139178 
L 445.586908 34.156411 
L 441.842597 33.173644 
L 438.348016 32.190877 
L 435.116468 31.208111 
L 432.154836 30.225344 
L 429.464202 29.242577 
L 427.040578 28.25981 
L 424.875678 27.277043 
" clip-path="url(#p890b852371)" style="fill: none; stroke: #808080; stroke-width: 1.5; stroke-linecap: square"/>
   </g>
   <g id="line2d_18">
    <path d="M 412.258065 124.570957 
L 412.258065 123.58819 
L 412.258066 122.605423 
L 412.258067 121.622656 
L 412.258069 120.639889 
L 412.258071 119.657123 
L 412.258076 118.674356 
L 412.258083 117.691589 
L 412.258095 116.708822 
L 412.258113 115.726055 
L 412.258142 114.743289 
L 412.258187 113.760522 
L 412.258257 112.777755 
L 412.258366 111.794988 
L 412.258531 110.812221 
L 412.258781 109.829455 
L 412.259158 108.846688 
L 412.259719 107.863921 
L 412.26055 106.881154 
L 412.26177 105.898387 
L 412.263546 104.915621 
L 412.26611 103.932854 
L 412.269785 102.950087 
L 412.275008 101.96732 
L 412.282371 100.984553 
L 412.292668 100.001787 
L 412.306951 99.01902 
L 412.326602 98.036253 
L 412.353419 97.053486 
L 412.389715 96.070719 
L 412.438439 95.087953 
L 412.503311 94.105186 
L 412.588967 93.122419 
L 412.701131 92.139652 
L 412.846787 91.156885 
L 413.034354 90.174119 
L 413.273865 89.191352 
L 413.577125 88.208585 
L 413.957846 87.225818 
L 414.431731 86.243051 
L 415.016511 85.260285 
L 415.73189 84.277518 
L 416.599398 83.294751 
L 417.642126 82.311984 
L 418.884327 81.329217 
L 420.350868 80.346451 
L 422.06653 79.363684 
L 424.055154 78.380917 
L 426.33864 77.39815 
L 428.935823 76.415383 
L 431.861252 75.432617 
L 435.123919 74.44985 
L 438.72599 73.467083 
L 442.661602 72.484316 
L 446.91579 71.501549 
L 451.463631 70.518783 
L 456.269663 69.536016 
L 461.287656 68.553249 
L 466.460793 67.570482 
L 471.722289 66.587715 
L 476.996485 65.604949 
L 482.200407 64.622182 
L 487.245756 63.639415 
L 492.041278 62.656648 
L 496.495435 61.673881 
L 500.51926 60.691115 
L 504.029294 59.708348 
L 506.950443 58.725581 
L 509.218651 57.742814 
L 510.78323 56.760047 
L 511.608745 55.777281 
L 511.676347 54.794514 
L 510.984487 53.811747 
L 509.548976 52.82898 
L 507.402388 51.846213 
L 504.592824 50.863447 
L 501.182128 49.88068 
L 497.243618 48.897913 
L 492.859476 47.915146 
L 488.117905 46.932379 
L 483.110198 45.949613 
L 477.927862 44.966846 
L 472.659902 43.984079 
L 467.390396 43.001312 
L 462.196428 42.018545 
L 457.146449 41.035779 
L 452.299108 40.053012 
L 447.702538 39.070245 
L 443.394107 38.087478 
L 439.400575 37.104711 
L 435.738619 36.121945 
L 432.415646 35.139178 
L 429.43083 34.156411 
L 426.776298 33.173644 
L 424.438395 32.190877 
L 422.398954 31.208111 
L 420.636536 30.225344 
L 419.127567 29.242577 
L 417.847366 28.25981 
L 416.771024 27.277043 
" clip-path="url(#p890b852371)" style="fill: none; stroke: #cc78bc; stroke-width: 1.5; stroke-linecap: square"/>
   </g>
   <g id="PathCollection_3">
    <g>
     <use xlink:href="#m2fce6bec69" x="511.676347" y="54.794514" style="fill: #029e73; stroke: #029e73"/>
    </g>
   </g>
  </g>
 </g>
 <defs>
  <clipPath id="p5547418647">
   <rect x="144" y="19.98" width="127.741935" height="111.888"/>
  </clipPath>
  <clipPath id="p2f213106c4">
   <rect x="278.129032" y="19.98" width="127.741935" height="111.888"/>
  </clipPath>
  <clipPath id="p890b852371">
   <rect x="412.258065" y="19.98" width="127.741935" height="111.888"/>
  </clipPath>
 </defs>
</svg>
